<svg xmlns="http://www.w3.org/2000/svg" xmlns:xlink="http://www.w3.org/1999/xlink" width="1366" zoomAndPan="magnify" viewBox="0 0 1024.5 265.499997" height="354" preserveAspectRatio="xMidYMid meet" version="1.0"><defs><g/><clipPath id="2ff31027fe"><path d="M 0.714844 0 L 1023.289062 0 L 1023.289062 265 L 0.714844 265 Z M 0.714844 0 " clip-rule="nonzero"/></clipPath></defs><g clip-path="url(#2ff31027fe)"><path fill="#ffffff" d="M 0.714844 0 L 1023.289062 0 L 1023.289062 265 L 0.714844 265 Z M 0.714844 0 " fill-opacity="1" fill-rule="nonzero"/><path fill="#06002e" d="M 0.714844 0 L 1023.289062 0 L 1023.289062 265 L 0.714844 265 Z M 0.714844 0 " fill-opacity="1" fill-rule="nonzero"/></g><g fill="#fffef9" fill-opacity="1"><g transform="translate(174.211952, 117.685771)"><g><path d="M 26.078125 0 L 2.734375 0 C 2.648438 0 2.597656 -0.148438 2.578125 -0.453125 C 2.566406 -0.753906 2.566406 -1.046875 2.578125 -1.328125 C 2.597656 -1.617188 2.648438 -1.765625 2.734375 -1.765625 C 4.285156 -1.765625 5.457031 -1.835938 6.25 -1.984375 C 7.039062 -2.140625 7.566406 -2.601562 7.828125 -3.375 C 8.097656 -4.15625 8.234375 -5.4375 8.234375 -7.21875 L 8.234375 -32.546875 C 8.234375 -34.367188 8.097656 -35.65625 7.828125 -36.40625 C 7.566406 -37.164062 7.039062 -37.628906 6.25 -37.796875 C 5.457031 -37.972656 4.285156 -38.039062 2.734375 -38 C 2.648438 -38 2.597656 -38.148438 2.578125 -38.453125 C 2.566406 -38.765625 2.566406 -39.0625 2.578125 -39.34375 C 2.597656 -39.625 2.648438 -39.765625 2.734375 -39.765625 L 23.34375 -39.765625 C 26.226562 -39.765625 28.757812 -39.453125 30.9375 -38.828125 C 33.113281 -38.203125 34.816406 -37.234375 36.046875 -35.921875 C 37.273438 -34.617188 37.890625 -32.96875 37.890625 -30.96875 C 37.890625 -29.300781 37.414062 -27.867188 36.46875 -26.671875 C 35.519531 -25.484375 34.269531 -24.5 32.71875 -23.71875 C 31.164062 -22.9375 29.441406 -22.335938 27.546875 -21.921875 C 25.660156 -21.515625 23.769531 -21.253906 21.875 -21.140625 L 21.875 -20.90625 C 23.3125 -20.90625 24.851562 -20.828125 26.5 -20.671875 C 28.144531 -20.523438 29.789062 -20.234375 31.4375 -19.796875 C 33.09375 -19.359375 34.59375 -18.757812 35.9375 -18 C 37.28125 -17.25 38.359375 -16.273438 39.171875 -15.078125 C 39.984375 -13.890625 40.390625 -12.460938 40.390625 -10.796875 C 40.390625 -8.640625 39.789062 -6.742188 38.59375 -5.109375 C 37.40625 -3.484375 35.734375 -2.222656 33.578125 -1.328125 C 31.421875 -0.441406 28.921875 0 26.078125 0 Z M 13.1875 -21.984375 L 15.625 -21.984375 C 20.882812 -21.984375 24.960938 -22.65625 27.859375 -24 C 30.765625 -25.34375 32.21875 -27.625 32.21875 -30.84375 C 32.21875 -32.664062 31.675781 -34.066406 30.59375 -35.046875 C 29.507812 -36.035156 28.132812 -36.726562 26.46875 -37.125 C 24.800781 -37.519531 23.039062 -37.71875 21.1875 -37.71875 L 13.640625 -37.71875 C 13.410156 -36.582031 13.273438 -35.34375 13.234375 -34 C 13.203125 -32.65625 13.1875 -31.09375 13.1875 -29.3125 Z M 13.1875 -19.9375 L 13.1875 -11.640625 C 13.1875 -9.597656 13.191406 -8.007812 13.203125 -6.875 C 13.222656 -5.738281 13.269531 -4.835938 13.34375 -4.171875 C 13.425781 -3.515625 13.523438 -2.804688 13.640625 -2.046875 L 23.234375 -2.046875 C 25.390625 -2.046875 27.335938 -2.367188 29.078125 -3.015625 C 30.828125 -3.660156 32.203125 -4.632812 33.203125 -5.9375 C 34.210938 -7.238281 34.71875 -8.835938 34.71875 -10.734375 C 34.71875 -12.585938 34.300781 -14.101562 33.46875 -15.28125 C 32.632812 -16.457031 31.523438 -17.363281 30.140625 -18 C 28.753906 -18.644531 27.226562 -19.097656 25.5625 -19.359375 C 23.894531 -19.628906 22.207031 -19.789062 20.5 -19.84375 C 18.800781 -19.90625 17.234375 -19.9375 15.796875 -19.9375 Z M 13.1875 -19.9375 "/></g></g></g><g fill="#fffef9" fill-opacity="1"><g transform="translate(216.249715, 117.685771)"><g><path d="M 17.953125 0.625 C 14.921875 0.625 12.238281 -0.0351562 9.90625 -1.359375 C 7.582031 -2.691406 5.753906 -4.539062 4.421875 -6.90625 C 3.097656 -9.269531 2.4375 -11.96875 2.4375 -15 C 2.4375 -18.0625 3.097656 -20.765625 4.421875 -23.109375 C 5.753906 -25.460938 7.582031 -27.3125 9.90625 -28.65625 C 12.238281 -30 14.921875 -30.671875 17.953125 -30.671875 C 21.015625 -30.671875 23.71875 -30 26.0625 -28.65625 C 28.414062 -27.3125 30.253906 -25.460938 31.578125 -23.109375 C 32.910156 -20.765625 33.578125 -18.0625 33.578125 -15 C 33.578125 -11.96875 32.910156 -9.269531 31.578125 -6.90625 C 30.253906 -4.539062 28.414062 -2.691406 26.0625 -1.359375 C 23.71875 -0.0351562 21.015625 0.625 17.953125 0.625 Z M 17.953125 -1.078125 C 20.078125 -1.078125 21.921875 -1.65625 23.484375 -2.8125 C 25.054688 -3.96875 26.28125 -5.59375 27.15625 -7.6875 C 28.03125 -9.789062 28.46875 -12.25 28.46875 -15.0625 C 28.46875 -17.863281 28.03125 -20.304688 27.15625 -22.390625 C 26.28125 -24.472656 25.054688 -26.082031 23.484375 -27.21875 C 21.921875 -28.351562 20.078125 -28.921875 17.953125 -28.921875 C 15.867188 -28.921875 14.039062 -28.351562 12.46875 -27.21875 C 10.894531 -26.082031 9.671875 -24.472656 8.796875 -22.390625 C 7.929688 -20.304688 7.5 -17.84375 7.5 -15 C 7.5 -12.195312 7.929688 -9.742188 8.796875 -7.640625 C 9.671875 -5.535156 10.894531 -3.914062 12.46875 -2.78125 C 14.039062 -1.644531 15.867188 -1.078125 17.953125 -1.078125 Z M 17.953125 -1.078125 "/></g></g></g><g fill="#fffef9" fill-opacity="1"><g transform="translate(252.265849, 117.685771)"><g><path d="M 6.875 0 L 2.15625 0 C 2.082031 0 2.035156 -0.140625 2.015625 -0.421875 C 1.992188 -0.710938 1.992188 -1 2.015625 -1.28125 C 2.035156 -1.5625 2.082031 -1.703125 2.15625 -1.703125 C 3.59375 -1.703125 4.625 -1.816406 5.25 -2.046875 C 5.875 -2.273438 6.253906 -2.707031 6.390625 -3.34375 C 6.523438 -3.988281 6.59375 -4.957031 6.59375 -6.25 L 6.59375 -21.921875 C 6.59375 -23.210938 6.546875 -24.226562 6.453125 -24.96875 C 6.359375 -25.707031 6.0625 -26.296875 5.5625 -26.734375 C 5.070312 -27.171875 4.222656 -27.554688 3.015625 -27.890625 C 2.898438 -27.929688 2.84375 -28.175781 2.84375 -28.625 C 2.84375 -29.082031 2.898438 -29.332031 3.015625 -29.375 C 3.617188 -29.488281 4.117188 -29.570312 4.515625 -29.625 C 4.910156 -29.6875 5.304688 -29.742188 5.703125 -29.796875 C 6.109375 -29.859375 6.648438 -29.941406 7.328125 -30.046875 C 8.003906 -30.160156 8.929688 -30.332031 10.109375 -30.5625 C 10.335938 -30.632812 10.535156 -30.601562 10.703125 -30.46875 C 10.878906 -30.34375 10.96875 -30.1875 10.96875 -30 L 10.625 -25 L 10.96875 -25 C 12.863281 -26.4375 14.8125 -27.738281 16.8125 -28.90625 C 18.820312 -30.082031 21.039062 -30.671875 23.46875 -30.671875 C 26.414062 -30.671875 28.617188 -29.734375 30.078125 -27.859375 C 31.535156 -25.984375 32.265625 -22.945312 32.265625 -18.75 L 32.265625 -6.25 C 32.265625 -4.957031 32.335938 -3.988281 32.484375 -3.34375 C 32.640625 -2.707031 33.03125 -2.273438 33.65625 -2.046875 C 34.28125 -1.816406 35.296875 -1.703125 36.703125 -1.703125 C 36.773438 -1.703125 36.820312 -1.5625 36.84375 -1.28125 C 36.863281 -1 36.863281 -0.710938 36.84375 -0.421875 C 36.820312 -0.140625 36.773438 0 36.703125 0 L 23.578125 0 C 23.503906 0 23.457031 -0.140625 23.4375 -0.421875 C 23.414062 -0.710938 23.414062 -1 23.4375 -1.28125 C 23.457031 -1.5625 23.503906 -1.703125 23.578125 -1.703125 C 24.941406 -1.703125 25.925781 -1.816406 26.53125 -2.046875 C 27.132812 -2.273438 27.503906 -2.707031 27.640625 -3.34375 C 27.773438 -3.988281 27.84375 -4.957031 27.84375 -6.25 L 27.84375 -17.890625 C 27.84375 -21.523438 27.222656 -24.023438 25.984375 -25.390625 C 24.753906 -26.753906 23.082031 -27.4375 20.96875 -27.4375 C 19.113281 -27.4375 17.320312 -26.960938 15.59375 -26.015625 C 13.875 -25.066406 12.367188 -24.046875 11.078125 -22.953125 L 11.078125 -6.25 C 11.078125 -4.957031 11.140625 -3.988281 11.265625 -3.34375 C 11.398438 -2.707031 11.757812 -2.273438 12.34375 -2.046875 C 12.9375 -1.816406 13.914062 -1.703125 15.28125 -1.703125 C 15.351562 -1.703125 15.398438 -1.5625 15.421875 -1.28125 C 15.441406 -1 15.441406 -0.710938 15.421875 -0.421875 C 15.398438 -0.140625 15.351562 0 15.28125 0 Z M 6.875 0 "/></g></g></g><g fill="#fffef9" fill-opacity="1"><g transform="translate(290.895148, 117.685771)"><g><path d="M 8.640625 -35.5625 C 7.804688 -35.5625 7.082031 -35.835938 6.46875 -36.390625 C 5.863281 -36.941406 5.5625 -37.632812 5.5625 -38.46875 C 5.5625 -39.257812 5.84375 -39.9375 6.40625 -40.5 C 6.976562 -41.070312 7.722656 -41.359375 8.640625 -41.359375 C 9.503906 -41.359375 10.238281 -41.09375 10.84375 -40.5625 C 11.457031 -40.03125 11.765625 -39.332031 11.765625 -38.46875 C 11.765625 -37.632812 11.488281 -36.941406 10.9375 -36.390625 C 10.382812 -35.835938 9.617188 -35.5625 8.640625 -35.5625 Z M 10.453125 -30.671875 C 10.796875 -30.671875 10.96875 -30.539062 10.96875 -30.28125 L 10.96875 1.53125 C 10.96875 4.832031 10.507812 7.445312 9.59375 9.375 C 8.6875 11.300781 7.515625 12.671875 6.078125 13.484375 C 4.640625 14.304688 3.125 14.71875 1.53125 14.71875 C 0.207031 14.71875 -1.039062 14.488281 -2.21875 14.03125 C -3.394531 13.570312 -4.34375 12.984375 -5.0625 12.265625 C -5.78125 11.546875 -6.140625 10.8125 -6.140625 10.0625 C -6.140625 9.414062 -5.921875 8.890625 -5.484375 8.484375 C -5.046875 8.085938 -4.503906 7.890625 -3.859375 7.890625 C -2.910156 7.890625 -2.160156 8.25 -1.609375 8.96875 C -1.066406 9.695312 -0.738281 10.894531 -0.625 12.5625 C -0.363281 12.632812 -0.0703125 12.734375 0.25 12.859375 C 0.570312 12.992188 1.019531 13.046875 1.59375 13.015625 C 2.914062 13.015625 3.945312 12.648438 4.6875 11.921875 C 5.425781 11.203125 5.9375 10.296875 6.21875 9.203125 C 6.5 8.109375 6.640625 7.007812 6.640625 5.90625 C 6.640625 4.726562 6.628906 3.722656 6.609375 2.890625 C 6.597656 2.054688 6.582031 1.203125 6.5625 0.328125 C 6.539062 -0.535156 6.53125 -1.554688 6.53125 -2.734375 L 6.53125 -21.703125 C 6.53125 -23.367188 6.425781 -24.578125 6.21875 -25.328125 C 6.007812 -26.085938 5.648438 -26.628906 5.140625 -26.953125 C 4.628906 -27.273438 3.878906 -27.585938 2.890625 -27.890625 C 2.816406 -27.929688 2.769531 -28.175781 2.75 -28.625 C 2.738281 -29.082031 2.785156 -29.332031 2.890625 -29.375 C 4.140625 -29.5625 5.398438 -29.769531 6.671875 -30 C 7.941406 -30.226562 9.203125 -30.453125 10.453125 -30.671875 Z M 10.453125 -30.671875 "/></g></g></g><g fill="#fffef9" fill-opacity="1"><g transform="translate(307.312595, 117.685771)"><g><path d="M 17.953125 0.625 C 14.921875 0.625 12.238281 -0.0351562 9.90625 -1.359375 C 7.582031 -2.691406 5.753906 -4.539062 4.421875 -6.90625 C 3.097656 -9.269531 2.4375 -11.96875 2.4375 -15 C 2.4375 -18.0625 3.097656 -20.765625 4.421875 -23.109375 C 5.753906 -25.460938 7.582031 -27.3125 9.90625 -28.65625 C 12.238281 -30 14.921875 -30.671875 17.953125 -30.671875 C 21.015625 -30.671875 23.71875 -30 26.0625 -28.65625 C 28.414062 -27.3125 30.253906 -25.460938 31.578125 -23.109375 C 32.910156 -20.765625 33.578125 -18.0625 33.578125 -15 C 33.578125 -11.96875 32.910156 -9.269531 31.578125 -6.90625 C 30.253906 -4.539062 28.414062 -2.691406 26.0625 -1.359375 C 23.71875 -0.0351562 21.015625 0.625 17.953125 0.625 Z M 17.953125 -1.078125 C 20.078125 -1.078125 21.921875 -1.65625 23.484375 -2.8125 C 25.054688 -3.96875 26.28125 -5.59375 27.15625 -7.6875 C 28.03125 -9.789062 28.46875 -12.25 28.46875 -15.0625 C 28.46875 -17.863281 28.03125 -20.304688 27.15625 -22.390625 C 26.28125 -24.472656 25.054688 -26.082031 23.484375 -27.21875 C 21.921875 -28.351562 20.078125 -28.921875 17.953125 -28.921875 C 15.867188 -28.921875 14.039062 -28.351562 12.46875 -27.21875 C 10.894531 -26.082031 9.671875 -24.472656 8.796875 -22.390625 C 7.929688 -20.304688 7.5 -17.84375 7.5 -15 C 7.5 -12.195312 7.929688 -9.742188 8.796875 -7.640625 C 9.671875 -5.535156 10.894531 -3.914062 12.46875 -2.78125 C 14.039062 -1.644531 15.867188 -1.078125 17.953125 -1.078125 Z M 17.953125 -1.078125 "/></g></g></g><g fill="#fffef9" fill-opacity="1"><g transform="translate(343.328729, 117.685771)"><g><path d="M 30.796875 -8.0625 C 30.796875 -6.8125 30.84375 -5.816406 30.9375 -5.078125 C 31.03125 -4.347656 31.320312 -3.765625 31.8125 -3.328125 C 32.300781 -2.890625 33.15625 -2.5 34.375 -2.15625 C 34.488281 -2.125 34.546875 -1.878906 34.546875 -1.421875 C 34.546875 -0.960938 34.488281 -0.734375 34.375 -0.734375 C 33.65625 -0.617188 33.007812 -0.503906 32.4375 -0.390625 C 31.875 -0.285156 31.203125 -0.15625 30.421875 0 C 29.648438 0.15625 28.582031 0.34375 27.21875 0.5625 C 27.0625 0.601562 26.878906 0.546875 26.671875 0.390625 C 26.460938 0.242188 26.378906 0.09375 26.421875 -0.0625 L 26.765625 -5.0625 L 26.421875 -5.0625 C 24.566406 -3.582031 22.613281 -2.265625 20.5625 -1.109375 C 18.519531 0.046875 16.304688 0.625 13.921875 0.625 C 10.960938 0.625 8.753906 -0.300781 7.296875 -2.15625 C 5.835938 -4.007812 5.109375 -7.039062 5.109375 -11.25 L 5.109375 -21.921875 C 5.109375 -23.210938 5.0625 -24.226562 4.96875 -24.96875 C 4.875 -25.707031 4.570312 -26.296875 4.0625 -26.734375 C 3.550781 -27.171875 2.691406 -27.554688 1.484375 -27.890625 C 1.328125 -27.972656 1.257812 -28.226562 1.28125 -28.65625 C 1.300781 -29.09375 1.382812 -29.332031 1.53125 -29.375 C 2.75 -29.5625 4 -29.757812 5.28125 -29.96875 C 6.570312 -30.175781 7.820312 -30.410156 9.03125 -30.671875 C 9.144531 -30.671875 9.265625 -30.625 9.390625 -30.53125 C 9.523438 -30.4375 9.578125 -30.351562 9.546875 -30.28125 L 9.546875 -12.09375 C 9.546875 -8.457031 10.171875 -5.957031 11.421875 -4.59375 C 12.671875 -3.238281 14.335938 -2.5625 16.421875 -2.5625 C 18.316406 -2.5625 20.132812 -3.050781 21.875 -4.03125 C 23.613281 -5.019531 25.085938 -6.023438 26.296875 -7.046875 L 26.296875 -21.921875 C 26.296875 -23.210938 26.25 -24.226562 26.15625 -24.96875 C 26.0625 -25.707031 25.769531 -26.296875 25.28125 -26.734375 C 24.789062 -27.171875 23.9375 -27.554688 22.71875 -27.890625 C 22.570312 -27.972656 22.503906 -28.226562 22.515625 -28.65625 C 22.535156 -29.09375 22.601562 -29.332031 22.71875 -29.375 C 23.820312 -29.5625 24.910156 -29.75 25.984375 -29.9375 C 27.066406 -30.125 28.5 -30.367188 30.28125 -30.671875 C 30.351562 -30.671875 30.457031 -30.625 30.59375 -30.53125 C 30.726562 -30.4375 30.796875 -30.351562 30.796875 -30.28125 Z M 30.796875 -8.0625 "/></g></g></g><g fill="#fffef9" fill-opacity="1"><g transform="translate(380.651462, 117.685771)"><g><path d="M 6.875 0 L 2.15625 0 C 2.082031 0 2.035156 -0.140625 2.015625 -0.421875 C 1.992188 -0.710938 1.992188 -1 2.015625 -1.28125 C 2.035156 -1.5625 2.082031 -1.703125 2.15625 -1.703125 C 3.59375 -1.703125 4.625 -1.816406 5.25 -2.046875 C 5.875 -2.273438 6.253906 -2.707031 6.390625 -3.34375 C 6.523438 -3.988281 6.59375 -4.957031 6.59375 -6.25 L 6.59375 -21.921875 C 6.59375 -23.210938 6.546875 -24.226562 6.453125 -24.96875 C 6.359375 -25.707031 6.035156 -26.296875 5.484375 -26.734375 C 4.929688 -27.171875 3.992188 -27.554688 2.671875 -27.890625 C 2.554688 -27.929688 2.515625 -28.175781 2.546875 -28.625 C 2.585938 -29.082031 2.628906 -29.332031 2.671875 -29.375 C 3.316406 -29.488281 3.828125 -29.570312 4.203125 -29.625 C 4.578125 -29.6875 4.960938 -29.742188 5.359375 -29.796875 C 5.765625 -29.859375 6.316406 -29.941406 7.015625 -30.046875 C 7.710938 -30.160156 8.707031 -30.332031 10 -30.5625 C 10.257812 -30.632812 10.484375 -30.601562 10.671875 -30.46875 C 10.867188 -30.34375 10.96875 -30.1875 10.96875 -30 C 10.925781 -29.394531 10.90625 -28.9375 10.90625 -28.625 C 10.90625 -28.320312 10.882812 -28 10.84375 -27.65625 C 10.8125 -27.320312 10.773438 -26.820312 10.734375 -26.15625 C 10.703125 -25.5 10.644531 -24.488281 10.5625 -23.125 L 10.90625 -23.125 C 11.4375 -24.5625 12.304688 -25.847656 13.515625 -26.984375 C 14.734375 -28.117188 16.0625 -29.015625 17.5 -29.671875 C 18.9375 -30.335938 20.207031 -30.671875 21.3125 -30.671875 C 22.632812 -30.671875 23.65625 -30.382812 24.375 -29.8125 C 25.09375 -29.25 25.453125 -28.570312 25.453125 -27.78125 C 25.453125 -26.988281 25.070312 -26.363281 24.3125 -25.90625 C 23.550781 -25.445312 22.738281 -25.21875 21.875 -25.21875 C 21.039062 -25.21875 20.207031 -25.367188 19.375 -25.671875 C 18.539062 -25.984375 17.78125 -26.382812 17.09375 -26.875 L 16.984375 -26.875 C 16.835938 -26.875 16.394531 -26.679688 15.65625 -26.296875 C 14.914062 -25.921875 14.109375 -25.28125 13.234375 -24.375 C 12.367188 -23.46875 11.648438 -22.179688 11.078125 -20.515625 L 11.078125 -6.25 C 11.078125 -4.957031 11.171875 -3.988281 11.359375 -3.34375 C 11.546875 -2.707031 12.046875 -2.273438 12.859375 -2.046875 C 13.679688 -1.816406 15.039062 -1.703125 16.9375 -1.703125 C 17.039062 -1.703125 17.101562 -1.5625 17.125 -1.28125 C 17.144531 -1 17.144531 -0.710938 17.125 -0.421875 C 17.101562 -0.140625 17.039062 0 16.9375 0 Z M 6.875 0 "/></g></g></g><g fill="#fffef9" fill-opacity="1"><g transform="translate(406.669428, 117.685771)"><g><path d="M 5.90625 9.03125 L 5.0625 8.015625 C 5.925781 7.367188 6.765625 6.570312 7.578125 5.625 C 8.398438 4.675781 9.082031 3.71875 9.625 2.75 C 10.175781 1.789062 10.488281 0.96875 10.5625 0.28125 C 10.414062 0.351562 10.195312 0.425781 9.90625 0.5 C 9.625 0.582031 9.296875 0.625 8.921875 0.625 C 7.929688 0.625 7.09375 0.34375 6.40625 -0.21875 C 5.726562 -0.789062 5.390625 -1.609375 5.390625 -2.671875 C 5.390625 -3.648438 5.703125 -4.472656 6.328125 -5.140625 C 6.953125 -5.804688 7.816406 -6.140625 8.921875 -6.140625 C 9.941406 -6.140625 10.789062 -5.785156 11.46875 -5.078125 C 12.15625 -4.378906 12.5 -3.484375 12.5 -2.390625 C 12.539062 -0.640625 12.195312 0.976562 11.46875 2.46875 C 10.75 3.96875 9.878906 5.265625 8.859375 6.359375 C 7.835938 7.460938 6.851562 8.351562 5.90625 9.03125 Z M 5.90625 9.03125 "/></g></g></g><g fill="#fffef9" fill-opacity="1"><g transform="translate(423.825376, 117.685771)"><g/></g></g><g fill="#fffef9" fill-opacity="1"><g transform="translate(439.504322, 117.685771)"><g><path d="M 8.640625 -35.5625 C 7.804688 -35.5625 7.082031 -35.835938 6.46875 -36.390625 C 5.863281 -36.941406 5.5625 -37.632812 5.5625 -38.46875 C 5.5625 -39.257812 5.84375 -39.9375 6.40625 -40.5 C 6.976562 -41.070312 7.722656 -41.359375 8.640625 -41.359375 C 9.503906 -41.359375 10.238281 -41.09375 10.84375 -40.5625 C 11.457031 -40.03125 11.765625 -39.332031 11.765625 -38.46875 C 11.765625 -37.632812 11.488281 -36.941406 10.9375 -36.390625 C 10.382812 -35.835938 9.617188 -35.5625 8.640625 -35.5625 Z M 10.453125 -30.671875 C 10.796875 -30.671875 10.96875 -30.539062 10.96875 -30.28125 L 10.96875 1.53125 C 10.96875 4.832031 10.507812 7.445312 9.59375 9.375 C 8.6875 11.300781 7.515625 12.671875 6.078125 13.484375 C 4.640625 14.304688 3.125 14.71875 1.53125 14.71875 C 0.207031 14.71875 -1.039062 14.488281 -2.21875 14.03125 C -3.394531 13.570312 -4.34375 12.984375 -5.0625 12.265625 C -5.78125 11.546875 -6.140625 10.8125 -6.140625 10.0625 C -6.140625 9.414062 -5.921875 8.890625 -5.484375 8.484375 C -5.046875 8.085938 -4.503906 7.890625 -3.859375 7.890625 C -2.910156 7.890625 -2.160156 8.25 -1.609375 8.96875 C -1.066406 9.695312 -0.738281 10.894531 -0.625 12.5625 C -0.363281 12.632812 -0.0703125 12.734375 0.25 12.859375 C 0.570312 12.992188 1.019531 13.046875 1.59375 13.015625 C 2.914062 13.015625 3.945312 12.648438 4.6875 11.921875 C 5.425781 11.203125 5.9375 10.296875 6.21875 9.203125 C 6.5 8.109375 6.640625 7.007812 6.640625 5.90625 C 6.640625 4.726562 6.628906 3.722656 6.609375 2.890625 C 6.597656 2.054688 6.582031 1.203125 6.5625 0.328125 C 6.539062 -0.535156 6.53125 -1.554688 6.53125 -2.734375 L 6.53125 -21.703125 C 6.53125 -23.367188 6.425781 -24.578125 6.21875 -25.328125 C 6.007812 -26.085938 5.648438 -26.628906 5.140625 -26.953125 C 4.628906 -27.273438 3.878906 -27.585938 2.890625 -27.890625 C 2.816406 -27.929688 2.769531 -28.175781 2.75 -28.625 C 2.738281 -29.082031 2.785156 -29.332031 2.890625 -29.375 C 4.140625 -29.5625 5.398438 -29.769531 6.671875 -30 C 7.941406 -30.226562 9.203125 -30.453125 10.453125 -30.671875 Z M 10.453125 -30.671875 "/></g></g></g><g fill="#fffef9" fill-opacity="1"><g transform="translate(455.921758, 117.685771)"><g><path d="M 30 -10.171875 C 30.070312 -10.285156 30.25 -10.226562 30.53125 -10 C 30.820312 -9.769531 30.945312 -9.617188 30.90625 -9.546875 C 30.070312 -7.953125 29.039062 -6.378906 27.8125 -4.828125 C 26.582031 -3.273438 25.085938 -1.988281 23.328125 -0.96875 C 21.566406 0.0507812 19.472656 0.5625 17.046875 0.5625 C 14.203125 0.5625 11.679688 -0.109375 9.484375 -1.453125 C 7.285156 -2.796875 5.5625 -4.613281 4.3125 -6.90625 C 3.0625 -9.195312 2.4375 -11.78125 2.4375 -14.65625 C 2.4375 -17.757812 3.097656 -20.515625 4.421875 -22.921875 C 5.753906 -25.328125 7.582031 -27.21875 9.90625 -28.59375 C 12.238281 -29.976562 14.941406 -30.671875 18.015625 -30.671875 C 20.359375 -30.671875 22.398438 -30.140625 24.140625 -29.078125 C 25.890625 -28.023438 27.253906 -26.644531 28.234375 -24.9375 C 29.222656 -23.238281 29.71875 -21.40625 29.71875 -19.4375 C 29.71875 -18.976562 29.6875 -18.460938 29.625 -17.890625 C 29.570312 -17.328125 29.503906 -16.835938 29.421875 -16.421875 L 7.328125 -16.421875 L 7.328125 -15.34375 C 7.328125 -13.9375 7.550781 -12.484375 8 -10.984375 C 8.457031 -9.492188 9.148438 -8.113281 10.078125 -6.84375 C 11.003906 -5.570312 12.195312 -4.546875 13.65625 -3.765625 C 15.113281 -2.992188 16.847656 -2.609375 18.859375 -2.609375 C 20.898438 -2.609375 22.613281 -3.023438 24 -3.859375 C 25.382812 -4.691406 26.550781 -5.695312 27.5 -6.875 C 28.445312 -8.050781 29.28125 -9.148438 30 -10.171875 Z M 17.78125 -28.921875 C 15.132812 -28.921875 12.875 -27.988281 11 -26.125 C 9.125 -24.269531 7.957031 -21.660156 7.5 -18.296875 L 21.984375 -18.296875 C 23.046875 -18.296875 23.820312 -18.492188 24.3125 -18.890625 C 24.800781 -19.285156 25.046875 -20.015625 25.046875 -21.078125 C 25.046875 -22.472656 24.769531 -23.769531 24.21875 -24.96875 C 23.675781 -26.164062 22.863281 -27.125 21.78125 -27.84375 C 20.707031 -28.5625 19.375 -28.921875 17.78125 -28.921875 Z M 17.78125 -28.921875 "/></g></g></g><g fill="#fffef9" fill-opacity="1"><g transform="translate(488.131779, 117.685771)"><g/></g></g><g fill="#fffef9" fill-opacity="1"><g transform="translate(503.810725, 117.685771)"><g><path d="M 16.421875 0.625 C 14.785156 0.625 13.351562 0.414062 12.125 0 C 10.894531 -0.414062 9.789062 -0.625 8.8125 -0.625 C 8.050781 -0.625 7.59375 -0.425781 7.4375 -0.03125 C 7.289062 0.363281 7.125 0.753906 6.9375 1.140625 C 6.894531 1.210938 6.75 1.25 6.5 1.25 C 6.257812 1.25 6.117188 1.210938 6.078125 1.140625 L 4.3125 -12.046875 C 4.3125 -12.117188 4.5 -12.191406 4.875 -12.265625 C 5.257812 -12.347656 5.472656 -12.3125 5.515625 -12.15625 C 6.160156 -9.507812 7.066406 -7.367188 8.234375 -5.734375 C 9.410156 -4.109375 10.695312 -2.925781 12.09375 -2.1875 C 13.5 -1.445312 14.882812 -1.078125 16.25 -1.078125 C 18.632812 -1.078125 20.546875 -1.5625 21.984375 -2.53125 C 23.421875 -3.5 24.140625 -4.851562 24.140625 -6.59375 C 24.140625 -8.289062 23.570312 -9.535156 22.4375 -10.328125 C 21.300781 -11.128906 19.539062 -11.890625 17.15625 -12.609375 L 13.0625 -13.96875 C 11.625 -14.425781 10.257812 -14.992188 8.96875 -15.671875 C 7.6875 -16.359375 6.644531 -17.25 5.84375 -18.34375 C 5.050781 -19.445312 4.65625 -20.832031 4.65625 -22.5 C 4.65625 -24.582031 5.140625 -26.207031 6.109375 -27.375 C 7.078125 -28.550781 8.269531 -29.394531 9.6875 -29.90625 C 11.101562 -30.414062 12.476562 -30.671875 13.8125 -30.671875 C 15.476562 -30.671875 16.9375 -30.453125 18.1875 -30.015625 C 19.4375 -29.585938 20.457031 -29.375 21.25 -29.375 C 22.039062 -29.375 22.484375 -29.5625 22.578125 -29.9375 C 22.671875 -30.320312 22.796875 -30.679688 22.953125 -31.015625 C 22.992188 -31.097656 23.132812 -31.140625 23.375 -31.140625 C 23.625 -31.140625 23.765625 -31.097656 23.796875 -31.015625 L 25.34375 -18.75 C 25.34375 -18.675781 25.148438 -18.617188 24.765625 -18.578125 C 24.390625 -18.535156 24.179688 -18.535156 24.140625 -18.578125 C 23.535156 -21.222656 22.703125 -23.296875 21.640625 -24.796875 C 20.585938 -26.296875 19.394531 -27.359375 18.0625 -27.984375 C 16.738281 -28.609375 15.375 -28.921875 13.96875 -28.921875 C 12.34375 -28.921875 10.960938 -28.503906 9.828125 -27.671875 C 8.691406 -26.835938 8.125 -25.566406 8.125 -23.859375 C 8.125 -22.234375 8.644531 -21.050781 9.6875 -20.3125 C 10.726562 -19.570312 12.382812 -18.84375 14.65625 -18.125 L 17.890625 -17.09375 C 19.671875 -16.570312 21.300781 -15.945312 22.78125 -15.21875 C 24.257812 -14.5 25.429688 -13.617188 26.296875 -12.578125 C 27.171875 -11.535156 27.609375 -10.203125 27.609375 -8.578125 C 27.609375 -6.347656 27.039062 -4.550781 25.90625 -3.1875 C 24.769531 -1.820312 23.335938 -0.84375 21.609375 -0.25 C 19.890625 0.332031 18.160156 0.625 16.421875 0.625 Z M 16.421875 0.625 "/></g></g></g><g fill="#fffef9" fill-opacity="1"><g transform="translate(533.4644, 117.685771)"><g><path d="M 30.796875 -8.0625 C 30.796875 -6.8125 30.84375 -5.816406 30.9375 -5.078125 C 31.03125 -4.347656 31.320312 -3.765625 31.8125 -3.328125 C 32.300781 -2.890625 33.15625 -2.5 34.375 -2.15625 C 34.488281 -2.125 34.546875 -1.878906 34.546875 -1.421875 C 34.546875 -0.960938 34.488281 -0.734375 34.375 -0.734375 C 33.65625 -0.617188 33.007812 -0.503906 32.4375 -0.390625 C 31.875 -0.285156 31.203125 -0.15625 30.421875 0 C 29.648438 0.15625 28.582031 0.34375 27.21875 0.5625 C 27.0625 0.601562 26.878906 0.546875 26.671875 0.390625 C 26.460938 0.242188 26.378906 0.09375 26.421875 -0.0625 L 26.765625 -5.0625 L 26.421875 -5.0625 C 24.566406 -3.582031 22.613281 -2.265625 20.5625 -1.109375 C 18.519531 0.046875 16.304688 0.625 13.921875 0.625 C 10.960938 0.625 8.753906 -0.300781 7.296875 -2.15625 C 5.835938 -4.007812 5.109375 -7.039062 5.109375 -11.25 L 5.109375 -21.921875 C 5.109375 -23.210938 5.0625 -24.226562 4.96875 -24.96875 C 4.875 -25.707031 4.570312 -26.296875 4.0625 -26.734375 C 3.550781 -27.171875 2.691406 -27.554688 1.484375 -27.890625 C 1.328125 -27.972656 1.257812 -28.226562 1.28125 -28.65625 C 1.300781 -29.09375 1.382812 -29.332031 1.53125 -29.375 C 2.75 -29.5625 4 -29.757812 5.28125 -29.96875 C 6.570312 -30.175781 7.820312 -30.410156 9.03125 -30.671875 C 9.144531 -30.671875 9.265625 -30.625 9.390625 -30.53125 C 9.523438 -30.4375 9.578125 -30.351562 9.546875 -30.28125 L 9.546875 -12.09375 C 9.546875 -8.457031 10.171875 -5.957031 11.421875 -4.59375 C 12.671875 -3.238281 14.335938 -2.5625 16.421875 -2.5625 C 18.316406 -2.5625 20.132812 -3.050781 21.875 -4.03125 C 23.613281 -5.019531 25.085938 -6.023438 26.296875 -7.046875 L 26.296875 -21.921875 C 26.296875 -23.210938 26.25 -24.226562 26.15625 -24.96875 C 26.0625 -25.707031 25.769531 -26.296875 25.28125 -26.734375 C 24.789062 -27.171875 23.9375 -27.554688 22.71875 -27.890625 C 22.570312 -27.972656 22.503906 -28.226562 22.515625 -28.65625 C 22.535156 -29.09375 22.601562 -29.332031 22.71875 -29.375 C 23.820312 -29.5625 24.910156 -29.75 25.984375 -29.9375 C 27.066406 -30.125 28.5 -30.367188 30.28125 -30.671875 C 30.351562 -30.671875 30.457031 -30.625 30.59375 -30.53125 C 30.726562 -30.4375 30.796875 -30.351562 30.796875 -30.28125 Z M 30.796875 -8.0625 "/></g></g></g><g fill="#fffef9" fill-opacity="1"><g transform="translate(570.787132, 117.685771)"><g><path d="M 8.515625 -35.5625 C 7.679688 -35.5625 6.960938 -35.835938 6.359375 -36.390625 C 5.753906 -36.941406 5.453125 -37.632812 5.453125 -38.46875 C 5.453125 -39.257812 5.734375 -39.9375 6.296875 -40.5 C 6.867188 -41.070312 7.609375 -41.359375 8.515625 -41.359375 C 9.390625 -41.359375 10.128906 -41.09375 10.734375 -40.5625 C 11.335938 -40.03125 11.640625 -39.332031 11.640625 -38.46875 C 11.640625 -37.632812 11.363281 -36.941406 10.8125 -36.390625 C 10.269531 -35.835938 9.503906 -35.5625 8.515625 -35.5625 Z M 6.875 0 L 2.15625 0 C 2.082031 0 2.035156 -0.140625 2.015625 -0.421875 C 1.992188 -0.710938 1.992188 -1 2.015625 -1.28125 C 2.035156 -1.5625 2.082031 -1.703125 2.15625 -1.703125 C 3.59375 -1.703125 4.625 -1.816406 5.25 -2.046875 C 5.875 -2.273438 6.253906 -2.707031 6.390625 -3.34375 C 6.523438 -3.988281 6.59375 -4.957031 6.59375 -6.25 L 6.59375 -21.703125 C 6.59375 -23.367188 6.488281 -24.578125 6.28125 -25.328125 C 6.070312 -26.085938 5.710938 -26.628906 5.203125 -26.953125 C 4.691406 -27.273438 3.960938 -27.585938 3.015625 -27.890625 C 2.929688 -27.929688 2.878906 -28.175781 2.859375 -28.625 C 2.847656 -29.082031 2.898438 -29.332031 3.015625 -29.375 C 4.179688 -29.5625 5.414062 -29.769531 6.71875 -30 C 8.03125 -30.226562 9.3125 -30.453125 10.5625 -30.671875 C 10.644531 -30.671875 10.75 -30.625 10.875 -30.53125 C 11.007812 -30.4375 11.078125 -30.351562 11.078125 -30.28125 L 11.078125 -6.25 C 11.078125 -4.957031 11.140625 -3.988281 11.265625 -3.34375 C 11.398438 -2.707031 11.78125 -2.273438 12.40625 -2.046875 C 13.03125 -1.816406 14.066406 -1.703125 15.515625 -1.703125 C 15.585938 -1.703125 15.632812 -1.5625 15.65625 -1.28125 C 15.675781 -1 15.675781 -0.710938 15.65625 -0.421875 C 15.632812 -0.140625 15.585938 0 15.515625 0 Z M 6.875 0 "/></g></g></g><g fill="#fffef9" fill-opacity="1"><g transform="translate(588.39755, 117.685771)"><g><path d="M 16.421875 0.625 C 14.785156 0.625 13.351562 0.414062 12.125 0 C 10.894531 -0.414062 9.789062 -0.625 8.8125 -0.625 C 8.050781 -0.625 7.59375 -0.425781 7.4375 -0.03125 C 7.289062 0.363281 7.125 0.753906 6.9375 1.140625 C 6.894531 1.210938 6.75 1.25 6.5 1.25 C 6.257812 1.25 6.117188 1.210938 6.078125 1.140625 L 4.3125 -12.046875 C 4.3125 -12.117188 4.5 -12.191406 4.875 -12.265625 C 5.257812 -12.347656 5.472656 -12.3125 5.515625 -12.15625 C 6.160156 -9.507812 7.066406 -7.367188 8.234375 -5.734375 C 9.410156 -4.109375 10.695312 -2.925781 12.09375 -2.1875 C 13.5 -1.445312 14.882812 -1.078125 16.25 -1.078125 C 18.632812 -1.078125 20.546875 -1.5625 21.984375 -2.53125 C 23.421875 -3.5 24.140625 -4.851562 24.140625 -6.59375 C 24.140625 -8.289062 23.570312 -9.535156 22.4375 -10.328125 C 21.300781 -11.128906 19.539062 -11.890625 17.15625 -12.609375 L 13.0625 -13.96875 C 11.625 -14.425781 10.257812 -14.992188 8.96875 -15.671875 C 7.6875 -16.359375 6.644531 -17.25 5.84375 -18.34375 C 5.050781 -19.445312 4.65625 -20.832031 4.65625 -22.5 C 4.65625 -24.582031 5.140625 -26.207031 6.109375 -27.375 C 7.078125 -28.550781 8.269531 -29.394531 9.6875 -29.90625 C 11.101562 -30.414062 12.476562 -30.671875 13.8125 -30.671875 C 15.476562 -30.671875 16.9375 -30.453125 18.1875 -30.015625 C 19.4375 -29.585938 20.457031 -29.375 21.25 -29.375 C 22.039062 -29.375 22.484375 -29.5625 22.578125 -29.9375 C 22.671875 -30.320312 22.796875 -30.679688 22.953125 -31.015625 C 22.992188 -31.097656 23.132812 -31.140625 23.375 -31.140625 C 23.625 -31.140625 23.765625 -31.097656 23.796875 -31.015625 L 25.34375 -18.75 C 25.34375 -18.675781 25.148438 -18.617188 24.765625 -18.578125 C 24.390625 -18.535156 24.179688 -18.535156 24.140625 -18.578125 C 23.535156 -21.222656 22.703125 -23.296875 21.640625 -24.796875 C 20.585938 -26.296875 19.394531 -27.359375 18.0625 -27.984375 C 16.738281 -28.609375 15.375 -28.921875 13.96875 -28.921875 C 12.34375 -28.921875 10.960938 -28.503906 9.828125 -27.671875 C 8.691406 -26.835938 8.125 -25.566406 8.125 -23.859375 C 8.125 -22.234375 8.644531 -21.050781 9.6875 -20.3125 C 10.726562 -19.570312 12.382812 -18.84375 14.65625 -18.125 L 17.890625 -17.09375 C 19.671875 -16.570312 21.300781 -15.945312 22.78125 -15.21875 C 24.257812 -14.5 25.429688 -13.617188 26.296875 -12.578125 C 27.171875 -11.535156 27.609375 -10.203125 27.609375 -8.578125 C 27.609375 -6.347656 27.039062 -4.550781 25.90625 -3.1875 C 24.769531 -1.820312 23.335938 -0.84375 21.609375 -0.25 C 19.890625 0.332031 18.160156 0.625 16.421875 0.625 Z M 16.421875 0.625 "/></g></g></g><g fill="#fffef9" fill-opacity="1"><g transform="translate(618.051225, 117.685771)"><g/></g></g><g fill="#fffef9" fill-opacity="1"><g transform="translate(633.730149, 117.685771)"><g><path d="M 44.875 -1.765625 C 44.957031 -1.765625 45.003906 -1.617188 45.015625 -1.328125 C 45.035156 -1.046875 45.035156 -0.753906 45.015625 -0.453125 C 45.003906 -0.148438 44.957031 0 44.875 0 L 29.828125 0 C 29.753906 0 29.707031 -0.148438 29.6875 -0.453125 C 29.664062 -0.753906 29.664062 -1.046875 29.6875 -1.328125 C 29.707031 -1.617188 29.753906 -1.765625 29.828125 -1.765625 C 31.453125 -1.765625 32.597656 -1.859375 33.265625 -2.046875 C 33.929688 -2.234375 34.1875 -2.8125 34.03125 -3.78125 C 33.875 -4.75 33.328125 -6.347656 32.390625 -8.578125 L 31.421875 -10.90625 C 30.128906 -10.90625 29 -10.90625 28.03125 -10.90625 C 27.070312 -10.90625 26.109375 -10.90625 25.140625 -10.90625 C 24.171875 -10.90625 23.003906 -10.90625 21.640625 -10.90625 L 11.8125 -10.90625 L 10.734375 -8.46875 C 9.898438 -6.53125 9.460938 -5.078125 9.421875 -4.109375 C 9.390625 -3.148438 9.828125 -2.519531 10.734375 -2.21875 C 11.640625 -1.914062 13.039062 -1.765625 14.9375 -1.765625 C 15.019531 -1.765625 15.066406 -1.617188 15.078125 -1.328125 C 15.097656 -1.046875 15.097656 -0.753906 15.078125 -0.453125 C 15.066406 -0.148438 15.019531 0 14.9375 0 L 1.25 0 C 1.207031 0 1.175781 -0.148438 1.15625 -0.453125 C 1.144531 -0.753906 1.144531 -1.046875 1.15625 -1.328125 C 1.175781 -1.617188 1.207031 -1.765625 1.25 -1.765625 C 2.382812 -1.765625 3.332031 -1.914062 4.09375 -2.21875 C 4.851562 -2.519531 5.570312 -3.148438 6.25 -4.109375 C 6.925781 -5.078125 7.679688 -6.53125 8.515625 -8.46875 L 20.84375 -36.75 L 19.71875 -39.421875 C 19.601562 -39.617188 19.640625 -39.753906 19.828125 -39.828125 C 20.546875 -40.015625 21.226562 -40.171875 21.875 -40.296875 C 22.519531 -40.429688 23.203125 -40.578125 23.921875 -40.734375 C 24.109375 -40.734375 24.222656 -40.675781 24.265625 -40.5625 L 37.546875 -8.578125 C 38.265625 -6.867188 38.878906 -5.550781 39.390625 -4.625 C 39.910156 -3.695312 40.425781 -3.035156 40.9375 -2.640625 C 41.445312 -2.242188 42.003906 -2 42.609375 -1.90625 C 43.210938 -1.8125 43.96875 -1.765625 44.875 -1.765625 Z M 21.59375 -12.890625 L 30.625 -12.890625 C 29.1875 -16.378906 27.738281 -19.898438 26.28125 -23.453125 C 24.820312 -27.015625 23.367188 -30.539062 21.921875 -34.03125 L 12.671875 -12.890625 Z M 21.59375 -12.890625 "/></g></g></g><g fill="#fffef9" fill-opacity="1"><g transform="translate(679.858069, 117.685771)"><g><path d="M 14.65625 0.625 C 13.289062 0.625 11.894531 0.359375 10.46875 -0.171875 C 9.050781 -0.703125 7.726562 -1.550781 6.5 -2.71875 C 5.269531 -3.894531 4.285156 -5.429688 3.546875 -7.328125 C 2.804688 -9.222656 2.4375 -11.535156 2.4375 -14.265625 C 2.4375 -17.296875 3.070312 -20.050781 4.34375 -22.53125 C 5.613281 -25.007812 7.453125 -26.984375 9.859375 -28.453125 C 12.265625 -29.929688 15.132812 -30.671875 18.46875 -30.671875 C 20.28125 -30.671875 21.953125 -30.332031 23.484375 -29.65625 C 25.023438 -28.976562 26.25 -28.316406 27.15625 -27.671875 L 27.15625 -34.59375 C 27.15625 -36.300781 26.957031 -37.664062 26.5625 -38.6875 C 26.164062 -39.707031 25.132812 -40.179688 23.46875 -40.109375 C 23.3125 -40.109375 23.234375 -40.332031 23.234375 -40.78125 C 23.234375 -41.238281 23.269531 -41.488281 23.34375 -41.53125 C 24.5625 -41.71875 25.796875 -41.914062 27.046875 -42.125 C 28.296875 -42.332031 29.523438 -42.550781 30.734375 -42.78125 C 31.304688 -42.894531 31.59375 -42.78125 31.59375 -42.4375 L 31.59375 -9.140625 C 31.59375 -7.285156 31.664062 -5.921875 31.8125 -5.046875 C 31.96875 -4.179688 32.3125 -3.554688 32.84375 -3.171875 C 33.375 -2.796875 34.207031 -2.421875 35.34375 -2.046875 C 35.457031 -2.003906 35.503906 -1.773438 35.484375 -1.359375 C 35.460938 -0.941406 35.414062 -0.71875 35.34375 -0.6875 C 34.164062 -0.53125 33 -0.335938 31.84375 -0.109375 C 30.6875 0.117188 29.519531 0.328125 28.34375 0.515625 C 28.195312 0.515625 28 0.445312 27.75 0.3125 C 27.507812 0.175781 27.390625 0.0507812 27.390625 -0.0625 C 27.390625 -0.925781 27.40625 -1.796875 27.4375 -2.671875 C 27.476562 -3.546875 27.515625 -4.414062 27.546875 -5.28125 L 27.21875 -5.28125 C 26.414062 -4.519531 25.425781 -3.675781 24.25 -2.75 C 23.082031 -1.820312 21.710938 -1.023438 20.140625 -0.359375 C 18.566406 0.296875 16.738281 0.625 14.65625 0.625 Z M 16.53125 -1.765625 C 18.351562 -1.765625 19.9375 -2.082031 21.28125 -2.71875 C 22.625 -3.363281 23.773438 -4.128906 24.734375 -5.015625 C 25.703125 -5.910156 26.507812 -6.679688 27.15625 -7.328125 L 27.15625 -23.6875 C 25.976562 -25.238281 24.6875 -26.5 23.28125 -27.46875 C 21.882812 -28.4375 20.109375 -28.921875 17.953125 -28.921875 C 16.023438 -28.921875 14.273438 -28.378906 12.703125 -27.296875 C 11.128906 -26.210938 9.867188 -24.617188 8.921875 -22.515625 C 7.972656 -20.421875 7.5 -17.835938 7.5 -14.765625 C 7.5 -12.378906 7.847656 -10.203125 8.546875 -8.234375 C 9.242188 -6.265625 10.265625 -4.691406 11.609375 -3.515625 C 12.960938 -2.347656 14.601562 -1.765625 16.53125 -1.765625 Z M 16.53125 -1.765625 "/></g></g></g><g fill="#fffef9" fill-opacity="1"><g transform="translate(718.146527, 117.685771)"><g><path d="M 6.875 0 L 2.15625 0 C 2.082031 0 2.035156 -0.140625 2.015625 -0.421875 C 1.992188 -0.710938 1.992188 -1 2.015625 -1.28125 C 2.035156 -1.5625 2.082031 -1.703125 2.15625 -1.703125 C 3.59375 -1.703125 4.625 -1.816406 5.25 -2.046875 C 5.875 -2.273438 6.253906 -2.707031 6.390625 -3.34375 C 6.523438 -3.988281 6.59375 -4.957031 6.59375 -6.25 L 6.59375 -21.921875 C 6.59375 -23.210938 6.546875 -24.226562 6.453125 -24.96875 C 6.359375 -25.707031 6.035156 -26.296875 5.484375 -26.734375 C 4.929688 -27.171875 3.992188 -27.554688 2.671875 -27.890625 C 2.554688 -27.929688 2.515625 -28.175781 2.546875 -28.625 C 2.585938 -29.082031 2.628906 -29.332031 2.671875 -29.375 C 3.316406 -29.488281 3.828125 -29.570312 4.203125 -29.625 C 4.578125 -29.6875 4.960938 -29.742188 5.359375 -29.796875 C 5.765625 -29.859375 6.316406 -29.941406 7.015625 -30.046875 C 7.710938 -30.160156 8.707031 -30.332031 10 -30.5625 C 10.257812 -30.632812 10.484375 -30.601562 10.671875 -30.46875 C 10.867188 -30.34375 10.96875 -30.1875 10.96875 -30 C 10.925781 -29.394531 10.90625 -28.9375 10.90625 -28.625 C 10.90625 -28.320312 10.882812 -28 10.84375 -27.65625 C 10.8125 -27.320312 10.773438 -26.820312 10.734375 -26.15625 C 10.703125 -25.5 10.644531 -24.488281 10.5625 -23.125 L 10.90625 -23.125 C 11.4375 -24.5625 12.304688 -25.847656 13.515625 -26.984375 C 14.734375 -28.117188 16.0625 -29.015625 17.5 -29.671875 C 18.9375 -30.335938 20.207031 -30.671875 21.3125 -30.671875 C 22.632812 -30.671875 23.65625 -30.382812 24.375 -29.8125 C 25.09375 -29.25 25.453125 -28.570312 25.453125 -27.78125 C 25.453125 -26.988281 25.070312 -26.363281 24.3125 -25.90625 C 23.550781 -25.445312 22.738281 -25.21875 21.875 -25.21875 C 21.039062 -25.21875 20.207031 -25.367188 19.375 -25.671875 C 18.539062 -25.984375 17.78125 -26.382812 17.09375 -26.875 L 16.984375 -26.875 C 16.835938 -26.875 16.394531 -26.679688 15.65625 -26.296875 C 14.914062 -25.921875 14.109375 -25.28125 13.234375 -24.375 C 12.367188 -23.46875 11.648438 -22.179688 11.078125 -20.515625 L 11.078125 -6.25 C 11.078125 -4.957031 11.171875 -3.988281 11.359375 -3.34375 C 11.546875 -2.707031 12.046875 -2.273438 12.859375 -2.046875 C 13.679688 -1.816406 15.039062 -1.703125 16.9375 -1.703125 C 17.039062 -1.703125 17.101562 -1.5625 17.125 -1.28125 C 17.144531 -1 17.144531 -0.710938 17.125 -0.421875 C 17.101562 -0.140625 17.039062 0 16.9375 0 Z M 6.875 0 "/></g></g></g><g fill="#fffef9" fill-opacity="1"><g transform="translate(744.164493, 117.685771)"><g><path d="M 8.515625 -35.5625 C 7.679688 -35.5625 6.960938 -35.835938 6.359375 -36.390625 C 5.753906 -36.941406 5.453125 -37.632812 5.453125 -38.46875 C 5.453125 -39.257812 5.734375 -39.9375 6.296875 -40.5 C 6.867188 -41.070312 7.609375 -41.359375 8.515625 -41.359375 C 9.390625 -41.359375 10.128906 -41.09375 10.734375 -40.5625 C 11.335938 -40.03125 11.640625 -39.332031 11.640625 -38.46875 C 11.640625 -37.632812 11.363281 -36.941406 10.8125 -36.390625 C 10.269531 -35.835938 9.503906 -35.5625 8.515625 -35.5625 Z M 6.875 0 L 2.15625 0 C 2.082031 0 2.035156 -0.140625 2.015625 -0.421875 C 1.992188 -0.710938 1.992188 -1 2.015625 -1.28125 C 2.035156 -1.5625 2.082031 -1.703125 2.15625 -1.703125 C 3.59375 -1.703125 4.625 -1.816406 5.25 -2.046875 C 5.875 -2.273438 6.253906 -2.707031 6.390625 -3.34375 C 6.523438 -3.988281 6.59375 -4.957031 6.59375 -6.25 L 6.59375 -21.703125 C 6.59375 -23.367188 6.488281 -24.578125 6.28125 -25.328125 C 6.070312 -26.085938 5.710938 -26.628906 5.203125 -26.953125 C 4.691406 -27.273438 3.960938 -27.585938 3.015625 -27.890625 C 2.929688 -27.929688 2.878906 -28.175781 2.859375 -28.625 C 2.847656 -29.082031 2.898438 -29.332031 3.015625 -29.375 C 4.179688 -29.5625 5.414062 -29.769531 6.71875 -30 C 8.03125 -30.226562 9.3125 -30.453125 10.5625 -30.671875 C 10.644531 -30.671875 10.75 -30.625 10.875 -30.53125 C 11.007812 -30.4375 11.078125 -30.351562 11.078125 -30.28125 L 11.078125 -6.25 C 11.078125 -4.957031 11.140625 -3.988281 11.265625 -3.34375 C 11.398438 -2.707031 11.78125 -2.273438 12.40625 -2.046875 C 13.03125 -1.816406 14.066406 -1.703125 15.515625 -1.703125 C 15.585938 -1.703125 15.632812 -1.5625 15.65625 -1.28125 C 15.675781 -1 15.675781 -0.710938 15.65625 -0.421875 C 15.632812 -0.140625 15.585938 0 15.515625 0 Z M 6.875 0 "/></g></g></g><g fill="#fffef9" fill-opacity="1"><g transform="translate(761.77491, 117.685771)"><g><path d="M 30 -10.171875 C 30.070312 -10.285156 30.25 -10.226562 30.53125 -10 C 30.820312 -9.769531 30.945312 -9.617188 30.90625 -9.546875 C 30.070312 -7.953125 29.039062 -6.378906 27.8125 -4.828125 C 26.582031 -3.273438 25.085938 -1.988281 23.328125 -0.96875 C 21.566406 0.0507812 19.472656 0.5625 17.046875 0.5625 C 14.203125 0.5625 11.679688 -0.109375 9.484375 -1.453125 C 7.285156 -2.796875 5.5625 -4.613281 4.3125 -6.90625 C 3.0625 -9.195312 2.4375 -11.78125 2.4375 -14.65625 C 2.4375 -17.757812 3.097656 -20.515625 4.421875 -22.921875 C 5.753906 -25.328125 7.582031 -27.21875 9.90625 -28.59375 C 12.238281 -29.976562 14.941406 -30.671875 18.015625 -30.671875 C 20.359375 -30.671875 22.398438 -30.140625 24.140625 -29.078125 C 25.890625 -28.023438 27.253906 -26.644531 28.234375 -24.9375 C 29.222656 -23.238281 29.71875 -21.40625 29.71875 -19.4375 C 29.71875 -18.976562 29.6875 -18.460938 29.625 -17.890625 C 29.570312 -17.328125 29.503906 -16.835938 29.421875 -16.421875 L 7.328125 -16.421875 L 7.328125 -15.34375 C 7.328125 -13.9375 7.550781 -12.484375 8 -10.984375 C 8.457031 -9.492188 9.148438 -8.113281 10.078125 -6.84375 C 11.003906 -5.570312 12.195312 -4.546875 13.65625 -3.765625 C 15.113281 -2.992188 16.847656 -2.609375 18.859375 -2.609375 C 20.898438 -2.609375 22.613281 -3.023438 24 -3.859375 C 25.382812 -4.691406 26.550781 -5.695312 27.5 -6.875 C 28.445312 -8.050781 29.28125 -9.148438 30 -10.171875 Z M 17.78125 -28.921875 C 15.132812 -28.921875 12.875 -27.988281 11 -26.125 C 9.125 -24.269531 7.957031 -21.660156 7.5 -18.296875 L 21.984375 -18.296875 C 23.046875 -18.296875 23.820312 -18.492188 24.3125 -18.890625 C 24.800781 -19.285156 25.046875 -20.015625 25.046875 -21.078125 C 25.046875 -22.472656 24.769531 -23.769531 24.21875 -24.96875 C 23.675781 -26.164062 22.863281 -27.125 21.78125 -27.84375 C 20.707031 -28.5625 19.375 -28.921875 17.78125 -28.921875 Z M 17.78125 -28.921875 "/></g></g></g><g fill="#fffef9" fill-opacity="1"><g transform="translate(793.984952, 117.685771)"><g><path d="M 6.875 0 L 2.15625 0 C 2.082031 0 2.035156 -0.140625 2.015625 -0.421875 C 1.992188 -0.710938 1.992188 -1 2.015625 -1.28125 C 2.035156 -1.5625 2.082031 -1.703125 2.15625 -1.703125 C 3.59375 -1.703125 4.625 -1.816406 5.25 -2.046875 C 5.875 -2.273438 6.253906 -2.707031 6.390625 -3.34375 C 6.523438 -3.988281 6.59375 -4.957031 6.59375 -6.25 L 6.59375 -21.921875 C 6.59375 -23.210938 6.546875 -24.226562 6.453125 -24.96875 C 6.359375 -25.707031 6.0625 -26.296875 5.5625 -26.734375 C 5.070312 -27.171875 4.222656 -27.554688 3.015625 -27.890625 C 2.898438 -27.929688 2.84375 -28.175781 2.84375 -28.625 C 2.84375 -29.082031 2.898438 -29.332031 3.015625 -29.375 C 3.617188 -29.488281 4.117188 -29.570312 4.515625 -29.625 C 4.910156 -29.6875 5.304688 -29.742188 5.703125 -29.796875 C 6.109375 -29.859375 6.648438 -29.941406 7.328125 -30.046875 C 8.003906 -30.160156 8.929688 -30.332031 10.109375 -30.5625 C 10.335938 -30.632812 10.535156 -30.601562 10.703125 -30.46875 C 10.878906 -30.34375 10.96875 -30.1875 10.96875 -30 L 10.625 -25 L 10.96875 -25 C 12.863281 -26.4375 14.8125 -27.738281 16.8125 -28.90625 C 18.820312 -30.082031 21.039062 -30.671875 23.46875 -30.671875 C 26.414062 -30.671875 28.617188 -29.734375 30.078125 -27.859375 C 31.535156 -25.984375 32.265625 -22.945312 32.265625 -18.75 L 32.265625 -6.25 C 32.265625 -4.957031 32.335938 -3.988281 32.484375 -3.34375 C 32.640625 -2.707031 33.03125 -2.273438 33.65625 -2.046875 C 34.28125 -1.816406 35.296875 -1.703125 36.703125 -1.703125 C 36.773438 -1.703125 36.820312 -1.5625 36.84375 -1.28125 C 36.863281 -1 36.863281 -0.710938 36.84375 -0.421875 C 36.820312 -0.140625 36.773438 0 36.703125 0 L 23.578125 0 C 23.503906 0 23.457031 -0.140625 23.4375 -0.421875 C 23.414062 -0.710938 23.414062 -1 23.4375 -1.28125 C 23.457031 -1.5625 23.503906 -1.703125 23.578125 -1.703125 C 24.941406 -1.703125 25.925781 -1.816406 26.53125 -2.046875 C 27.132812 -2.273438 27.503906 -2.707031 27.640625 -3.34375 C 27.773438 -3.988281 27.84375 -4.957031 27.84375 -6.25 L 27.84375 -17.890625 C 27.84375 -21.523438 27.222656 -24.023438 25.984375 -25.390625 C 24.753906 -26.753906 23.082031 -27.4375 20.96875 -27.4375 C 19.113281 -27.4375 17.320312 -26.960938 15.59375 -26.015625 C 13.875 -25.066406 12.367188 -24.046875 11.078125 -22.953125 L 11.078125 -6.25 C 11.078125 -4.957031 11.140625 -3.988281 11.265625 -3.34375 C 11.398438 -2.707031 11.757812 -2.273438 12.34375 -2.046875 C 12.9375 -1.816406 13.914062 -1.703125 15.28125 -1.703125 C 15.351562 -1.703125 15.398438 -1.5625 15.421875 -1.28125 C 15.441406 -1 15.441406 -0.710938 15.421875 -0.421875 C 15.398438 -0.140625 15.351562 0 15.28125 0 Z M 6.875 0 "/></g></g></g><g fill="#fffef9" fill-opacity="1"><g transform="translate(832.614262, 117.685771)"><g><path d="M 5.90625 9.03125 L 5.0625 8.015625 C 5.925781 7.367188 6.765625 6.570312 7.578125 5.625 C 8.398438 4.675781 9.082031 3.71875 9.625 2.75 C 10.175781 1.789062 10.488281 0.96875 10.5625 0.28125 C 10.414062 0.351562 10.195312 0.425781 9.90625 0.5 C 9.625 0.582031 9.296875 0.625 8.921875 0.625 C 7.929688 0.625 7.09375 0.34375 6.40625 -0.21875 C 5.726562 -0.789062 5.390625 -1.609375 5.390625 -2.671875 C 5.390625 -3.648438 5.703125 -4.472656 6.328125 -5.140625 C 6.953125 -5.804688 7.816406 -6.140625 8.921875 -6.140625 C 9.941406 -6.140625 10.789062 -5.785156 11.46875 -5.078125 C 12.15625 -4.378906 12.5 -3.484375 12.5 -2.390625 C 12.539062 -0.640625 12.195312 0.976562 11.46875 2.46875 C 10.75 3.96875 9.878906 5.265625 8.859375 6.359375 C 7.835938 7.460938 6.851562 8.351562 5.90625 9.03125 Z M 5.90625 9.03125 "/></g></g></g><g fill="#fffef9" fill-opacity="1"><g transform="translate(177.824512, 179.852353)"><g><path d="M 14.65625 0.625 C 13.289062 0.625 11.894531 0.359375 10.46875 -0.171875 C 9.050781 -0.703125 7.726562 -1.550781 6.5 -2.71875 C 5.269531 -3.894531 4.285156 -5.429688 3.546875 -7.328125 C 2.804688 -9.222656 2.4375 -11.535156 2.4375 -14.265625 C 2.4375 -17.296875 3.070312 -20.050781 4.34375 -22.53125 C 5.613281 -25.007812 7.453125 -26.984375 9.859375 -28.453125 C 12.265625 -29.929688 15.132812 -30.671875 18.46875 -30.671875 C 20.28125 -30.671875 21.953125 -30.332031 23.484375 -29.65625 C 25.023438 -28.976562 26.25 -28.316406 27.15625 -27.671875 L 27.15625 -34.59375 C 27.15625 -36.300781 26.957031 -37.664062 26.5625 -38.6875 C 26.164062 -39.707031 25.132812 -40.179688 23.46875 -40.109375 C 23.3125 -40.109375 23.234375 -40.332031 23.234375 -40.78125 C 23.234375 -41.238281 23.269531 -41.488281 23.34375 -41.53125 C 24.5625 -41.71875 25.796875 -41.914062 27.046875 -42.125 C 28.296875 -42.332031 29.523438 -42.550781 30.734375 -42.78125 C 31.304688 -42.894531 31.59375 -42.78125 31.59375 -42.4375 L 31.59375 -9.140625 C 31.59375 -7.285156 31.664062 -5.921875 31.8125 -5.046875 C 31.96875 -4.179688 32.3125 -3.554688 32.84375 -3.171875 C 33.375 -2.796875 34.207031 -2.421875 35.34375 -2.046875 C 35.457031 -2.003906 35.503906 -1.773438 35.484375 -1.359375 C 35.460938 -0.941406 35.414062 -0.71875 35.34375 -0.6875 C 34.164062 -0.53125 33 -0.335938 31.84375 -0.109375 C 30.6875 0.117188 29.519531 0.328125 28.34375 0.515625 C 28.195312 0.515625 28 0.445312 27.75 0.3125 C 27.507812 0.175781 27.390625 0.0507812 27.390625 -0.0625 C 27.390625 -0.925781 27.40625 -1.796875 27.4375 -2.671875 C 27.476562 -3.546875 27.515625 -4.414062 27.546875 -5.28125 L 27.21875 -5.28125 C 26.414062 -4.519531 25.425781 -3.675781 24.25 -2.75 C 23.082031 -1.820312 21.710938 -1.023438 20.140625 -0.359375 C 18.566406 0.296875 16.738281 0.625 14.65625 0.625 Z M 16.53125 -1.765625 C 18.351562 -1.765625 19.9375 -2.082031 21.28125 -2.71875 C 22.625 -3.363281 23.773438 -4.128906 24.734375 -5.015625 C 25.703125 -5.910156 26.507812 -6.679688 27.15625 -7.328125 L 27.15625 -23.6875 C 25.976562 -25.238281 24.6875 -26.5 23.28125 -27.46875 C 21.882812 -28.4375 20.109375 -28.921875 17.953125 -28.921875 C 16.023438 -28.921875 14.273438 -28.378906 12.703125 -27.296875 C 11.128906 -26.210938 9.867188 -24.617188 8.921875 -22.515625 C 7.972656 -20.421875 7.5 -17.835938 7.5 -14.765625 C 7.5 -12.378906 7.847656 -10.203125 8.546875 -8.234375 C 9.242188 -6.265625 10.265625 -4.691406 11.609375 -3.515625 C 12.960938 -2.347656 14.601562 -1.765625 16.53125 -1.765625 Z M 16.53125 -1.765625 "/></g></g></g><g fill="#fffef9" fill-opacity="1"><g transform="translate(216.112959, 179.852353)"><g><path d="M 13.296875 -35.21875 C 13.140625 -35.1875 12.96875 -35.300781 12.78125 -35.5625 C 12.59375 -35.832031 12.59375 -36.019531 12.78125 -36.125 C 14.144531 -37.039062 15.210938 -37.894531 15.984375 -38.6875 C 16.765625 -39.476562 17.375 -40.175781 17.8125 -40.78125 C 18.25 -41.394531 18.644531 -41.878906 19 -42.234375 C 19.363281 -42.597656 19.8125 -42.78125 20.34375 -42.78125 C 21.4375 -42.78125 21.984375 -42.285156 21.984375 -41.296875 C 21.984375 -39.515625 19.085938 -37.488281 13.296875 -35.21875 Z M 30 -10.171875 C 30.070312 -10.285156 30.25 -10.226562 30.53125 -10 C 30.820312 -9.769531 30.945312 -9.617188 30.90625 -9.546875 C 30.070312 -7.953125 29.039062 -6.378906 27.8125 -4.828125 C 26.582031 -3.273438 25.085938 -1.988281 23.328125 -0.96875 C 21.566406 0.0507812 19.472656 0.5625 17.046875 0.5625 C 14.203125 0.5625 11.679688 -0.109375 9.484375 -1.453125 C 7.285156 -2.796875 5.5625 -4.613281 4.3125 -6.90625 C 3.0625 -9.195312 2.4375 -11.78125 2.4375 -14.65625 C 2.4375 -17.757812 3.097656 -20.515625 4.421875 -22.921875 C 5.753906 -25.328125 7.582031 -27.21875 9.90625 -28.59375 C 12.238281 -29.976562 14.941406 -30.671875 18.015625 -30.671875 C 20.359375 -30.671875 22.398438 -30.140625 24.140625 -29.078125 C 25.890625 -28.023438 27.253906 -26.644531 28.234375 -24.9375 C 29.222656 -23.238281 29.71875 -21.40625 29.71875 -19.4375 C 29.71875 -18.976562 29.6875 -18.460938 29.625 -17.890625 C 29.570312 -17.328125 29.503906 -16.835938 29.421875 -16.421875 L 7.328125 -16.421875 L 7.328125 -15.34375 C 7.328125 -13.9375 7.550781 -12.484375 8 -10.984375 C 8.457031 -9.492188 9.148438 -8.113281 10.078125 -6.84375 C 11.003906 -5.570312 12.195312 -4.546875 13.65625 -3.765625 C 15.113281 -2.992188 16.847656 -2.609375 18.859375 -2.609375 C 20.898438 -2.609375 22.613281 -3.023438 24 -3.859375 C 25.382812 -4.691406 26.550781 -5.695312 27.5 -6.875 C 28.445312 -8.050781 29.28125 -9.148438 30 -10.171875 Z M 17.78125 -28.921875 C 15.132812 -28.921875 12.875 -27.988281 11 -26.125 C 9.125 -24.269531 7.957031 -21.660156 7.5 -18.296875 L 21.984375 -18.296875 C 23.046875 -18.296875 23.820312 -18.492188 24.3125 -18.890625 C 24.800781 -19.285156 25.046875 -20.015625 25.046875 -21.078125 C 25.046875 -22.472656 24.769531 -23.769531 24.21875 -24.96875 C 23.675781 -26.164062 22.863281 -27.125 21.78125 -27.84375 C 20.707031 -28.5625 19.375 -28.921875 17.78125 -28.921875 Z M 17.78125 -28.921875 "/></g></g></g><g fill="#fffef9" fill-opacity="1"><g transform="translate(248.322979, 179.852353)"><g><path d="M 16.53125 0.515625 L 7.265625 -21.46875 C 6.472656 -23.4375 5.742188 -24.90625 5.078125 -25.875 C 4.421875 -26.84375 3.75 -27.492188 3.0625 -27.828125 C 2.382812 -28.171875 1.59375 -28.34375 0.6875 -28.34375 C 0.644531 -28.34375 0.613281 -28.484375 0.59375 -28.765625 C 0.570312 -29.054688 0.570312 -29.332031 0.59375 -29.59375 C 0.613281 -29.863281 0.644531 -30 0.6875 -30 L 14.890625 -30 C 14.960938 -30 15.007812 -29.863281 15.03125 -29.59375 C 15.050781 -29.332031 15.050781 -29.054688 15.03125 -28.765625 C 15.007812 -28.484375 14.960938 -28.34375 14.890625 -28.34375 C 13.253906 -28.34375 12.09375 -28.171875 11.40625 -27.828125 C 10.726562 -27.492188 10.457031 -26.84375 10.59375 -25.875 C 10.726562 -24.90625 11.191406 -23.4375 11.984375 -21.46875 L 18.640625 -5.515625 L 25.21875 -21.078125 C 26.28125 -23.578125 26.582031 -25.40625 26.125 -26.5625 C 25.675781 -27.71875 24.390625 -28.3125 22.265625 -28.34375 C 22.191406 -28.34375 22.144531 -28.484375 22.125 -28.765625 C 22.101562 -29.054688 22.101562 -29.332031 22.125 -29.59375 C 22.144531 -29.863281 22.191406 -30 22.265625 -30 L 34.140625 -30 C 34.179688 -30 34.210938 -29.863281 34.234375 -29.59375 C 34.253906 -29.332031 34.253906 -29.054688 34.234375 -28.765625 C 34.210938 -28.484375 34.179688 -28.34375 34.140625 -28.34375 C 32.972656 -28.3125 31.789062 -27.71875 30.59375 -26.5625 C 29.394531 -25.40625 28.269531 -23.578125 27.21875 -21.078125 L 18.015625 0.515625 Z M 16.53125 0.515625 "/></g></g></g><g fill="#fffef9" fill-opacity="1"><g transform="translate(284.055081, 179.852353)"><g><path d="M 30 -10.171875 C 30.070312 -10.285156 30.25 -10.226562 30.53125 -10 C 30.820312 -9.769531 30.945312 -9.617188 30.90625 -9.546875 C 30.070312 -7.953125 29.039062 -6.378906 27.8125 -4.828125 C 26.582031 -3.273438 25.085938 -1.988281 23.328125 -0.96875 C 21.566406 0.0507812 19.472656 0.5625 17.046875 0.5625 C 14.203125 0.5625 11.679688 -0.109375 9.484375 -1.453125 C 7.285156 -2.796875 5.5625 -4.613281 4.3125 -6.90625 C 3.0625 -9.195312 2.4375 -11.78125 2.4375 -14.65625 C 2.4375 -17.757812 3.097656 -20.515625 4.421875 -22.921875 C 5.753906 -25.328125 7.582031 -27.21875 9.90625 -28.59375 C 12.238281 -29.976562 14.941406 -30.671875 18.015625 -30.671875 C 20.359375 -30.671875 22.398438 -30.140625 24.140625 -29.078125 C 25.890625 -28.023438 27.253906 -26.644531 28.234375 -24.9375 C 29.222656 -23.238281 29.71875 -21.40625 29.71875 -19.4375 C 29.71875 -18.976562 29.6875 -18.460938 29.625 -17.890625 C 29.570312 -17.328125 29.503906 -16.835938 29.421875 -16.421875 L 7.328125 -16.421875 L 7.328125 -15.34375 C 7.328125 -13.9375 7.550781 -12.484375 8 -10.984375 C 8.457031 -9.492188 9.148438 -8.113281 10.078125 -6.84375 C 11.003906 -5.570312 12.195312 -4.546875 13.65625 -3.765625 C 15.113281 -2.992188 16.847656 -2.609375 18.859375 -2.609375 C 20.898438 -2.609375 22.613281 -3.023438 24 -3.859375 C 25.382812 -4.691406 26.550781 -5.695312 27.5 -6.875 C 28.445312 -8.050781 29.28125 -9.148438 30 -10.171875 Z M 17.78125 -28.921875 C 15.132812 -28.921875 12.875 -27.988281 11 -26.125 C 9.125 -24.269531 7.957031 -21.660156 7.5 -18.296875 L 21.984375 -18.296875 C 23.046875 -18.296875 23.820312 -18.492188 24.3125 -18.890625 C 24.800781 -19.285156 25.046875 -20.015625 25.046875 -21.078125 C 25.046875 -22.472656 24.769531 -23.769531 24.21875 -24.96875 C 23.675781 -26.164062 22.863281 -27.125 21.78125 -27.84375 C 20.707031 -28.5625 19.375 -28.921875 17.78125 -28.921875 Z M 17.78125 -28.921875 "/></g></g></g><g fill="#fffef9" fill-opacity="1"><g transform="translate(316.265102, 179.852353)"><g><path d="M 6.8125 0 L 2.109375 0 C 2.023438 0 1.972656 -0.140625 1.953125 -0.421875 C 1.941406 -0.710938 1.941406 -1 1.953125 -1.28125 C 1.972656 -1.5625 2.023438 -1.703125 2.109375 -1.703125 C 3.546875 -1.703125 4.566406 -1.816406 5.171875 -2.046875 C 5.773438 -2.273438 6.148438 -2.707031 6.296875 -3.34375 C 6.453125 -3.988281 6.53125 -4.957031 6.53125 -6.25 L 6.53125 -34.65625 C 6.53125 -35.789062 6.460938 -36.773438 6.328125 -37.609375 C 6.203125 -38.441406 5.875 -39.082031 5.34375 -39.53125 C 4.8125 -39.988281 3.976562 -40.179688 2.84375 -40.109375 C 2.726562 -40.109375 2.660156 -40.332031 2.640625 -40.78125 C 2.617188 -41.238281 2.664062 -41.488281 2.78125 -41.53125 C 4 -41.757812 5.222656 -41.96875 6.453125 -42.15625 C 7.679688 -42.34375 8.921875 -42.550781 10.171875 -42.78125 C 10.703125 -42.96875 10.96875 -42.851562 10.96875 -42.4375 L 10.96875 -6.25 C 10.96875 -4.957031 11.039062 -3.988281 11.1875 -3.34375 C 11.34375 -2.707031 11.734375 -2.273438 12.359375 -2.046875 C 12.984375 -1.816406 13.992188 -1.703125 15.390625 -1.703125 C 15.472656 -1.703125 15.519531 -1.5625 15.53125 -1.28125 C 15.550781 -1 15.550781 -0.710938 15.53125 -0.421875 C 15.519531 -0.140625 15.472656 0 15.390625 0 Z M 6.8125 0 "/></g></g></g><g fill="#fffef9" fill-opacity="1"><g transform="translate(333.761902, 179.852353)"><g><path d="M 17.953125 0.625 C 14.921875 0.625 12.238281 -0.0351562 9.90625 -1.359375 C 7.582031 -2.691406 5.753906 -4.539062 4.421875 -6.90625 C 3.097656 -9.269531 2.4375 -11.96875 2.4375 -15 C 2.4375 -18.0625 3.097656 -20.765625 4.421875 -23.109375 C 5.753906 -25.460938 7.582031 -27.3125 9.90625 -28.65625 C 12.238281 -30 14.921875 -30.671875 17.953125 -30.671875 C 21.015625 -30.671875 23.71875 -30 26.0625 -28.65625 C 28.414062 -27.3125 30.253906 -25.460938 31.578125 -23.109375 C 32.910156 -20.765625 33.578125 -18.0625 33.578125 -15 C 33.578125 -11.96875 32.910156 -9.269531 31.578125 -6.90625 C 30.253906 -4.539062 28.414062 -2.691406 26.0625 -1.359375 C 23.71875 -0.0351562 21.015625 0.625 17.953125 0.625 Z M 17.953125 -1.078125 C 20.078125 -1.078125 21.921875 -1.65625 23.484375 -2.8125 C 25.054688 -3.96875 26.28125 -5.59375 27.15625 -7.6875 C 28.03125 -9.789062 28.46875 -12.25 28.46875 -15.0625 C 28.46875 -17.863281 28.03125 -20.304688 27.15625 -22.390625 C 26.28125 -24.472656 25.054688 -26.082031 23.484375 -27.21875 C 21.921875 -28.351562 20.078125 -28.921875 17.953125 -28.921875 C 15.867188 -28.921875 14.039062 -28.351562 12.46875 -27.21875 C 10.894531 -26.082031 9.671875 -24.472656 8.796875 -22.390625 C 7.929688 -20.304688 7.5 -17.84375 7.5 -15 C 7.5 -12.195312 7.929688 -9.742188 8.796875 -7.640625 C 9.671875 -5.535156 10.894531 -3.914062 12.46875 -2.78125 C 14.039062 -1.644531 15.867188 -1.078125 17.953125 -1.078125 Z M 17.953125 -1.078125 "/></g></g></g><g fill="#fffef9" fill-opacity="1"><g transform="translate(369.778036, 179.852353)"><g><path d="M 22.953125 -30.671875 C 24.316406 -30.671875 25.707031 -30.40625 27.125 -29.875 C 28.550781 -29.351562 29.878906 -28.503906 31.109375 -27.328125 C 32.335938 -26.148438 33.320312 -24.613281 34.0625 -22.71875 C 34.800781 -20.832031 35.171875 -18.523438 35.171875 -15.796875 C 35.171875 -12.765625 34.535156 -10.007812 33.265625 -7.53125 C 31.992188 -5.050781 30.164062 -3.070312 27.78125 -1.59375 C 25.394531 -0.113281 22.515625 0.625 19.140625 0.625 C 17.328125 0.625 15.660156 0.296875 14.140625 -0.359375 C 12.628906 -1.023438 11.398438 -1.679688 10.453125 -2.328125 L 10.453125 7.953125 C 10.453125 9.242188 10.546875 10.207031 10.734375 10.84375 C 10.921875 11.488281 11.421875 11.925781 12.234375 12.15625 C 13.054688 12.382812 14.414062 12.5 16.3125 12.5 C 16.414062 12.5 16.476562 12.640625 16.5 12.921875 C 16.519531 13.203125 16.519531 13.484375 16.5 13.765625 C 16.476562 14.054688 16.414062 14.203125 16.3125 14.203125 L 1.59375 14.203125 C 1.519531 14.203125 1.472656 14.054688 1.453125 13.765625 C 1.429688 13.484375 1.429688 13.203125 1.453125 12.921875 C 1.472656 12.640625 1.519531 12.5 1.59375 12.5 C 3.03125 12.5 4.050781 12.382812 4.65625 12.15625 C 5.257812 11.925781 5.632812 11.488281 5.78125 10.84375 C 5.9375 10.207031 6.015625 9.242188 6.015625 7.953125 L 6.015625 -20.90625 C 6.015625 -22.757812 5.945312 -24.117188 5.8125 -24.984375 C 5.6875 -25.859375 5.367188 -26.476562 4.859375 -26.84375 C 4.347656 -27.207031 3.523438 -27.554688 2.390625 -27.890625 C 2.304688 -27.929688 2.253906 -28.175781 2.234375 -28.625 C 2.222656 -29.082031 2.273438 -29.332031 2.390625 -29.375 C 3.640625 -29.5625 4.847656 -29.75 6.015625 -29.9375 C 7.191406 -30.125 8.367188 -30.316406 9.546875 -30.515625 C 10.148438 -30.617188 10.453125 -30.445312 10.453125 -30 C 10.410156 -29.09375 10.351562 -28.203125 10.28125 -27.328125 C 10.207031 -26.453125 10.132812 -25.582031 10.0625 -24.71875 L 10.34375 -24.71875 C 11.175781 -25.507812 12.175781 -26.367188 13.34375 -27.296875 C 14.519531 -28.222656 15.894531 -29.015625 17.46875 -29.671875 C 19.039062 -30.335938 20.867188 -30.671875 22.953125 -30.671875 Z M 21.078125 -28.296875 C 19.253906 -28.296875 17.671875 -27.960938 16.328125 -27.296875 C 14.984375 -26.628906 13.835938 -25.859375 12.890625 -24.984375 C 11.941406 -24.117188 11.128906 -23.363281 10.453125 -22.71875 L 10.453125 -6.3125 C 11.628906 -4.789062 12.914062 -3.535156 14.3125 -2.546875 C 15.71875 -1.566406 17.5 -1.078125 19.65625 -1.078125 C 21.582031 -1.078125 23.332031 -1.625 24.90625 -2.71875 C 26.476562 -3.820312 27.738281 -5.425781 28.6875 -7.53125 C 29.632812 -9.632812 30.109375 -12.195312 30.109375 -15.21875 C 30.109375 -17.644531 29.75 -19.84375 29.03125 -21.8125 C 28.3125 -23.78125 27.28125 -25.351562 25.9375 -26.53125 C 24.59375 -27.707031 22.972656 -28.296875 21.078125 -28.296875 Z M 21.078125 -28.296875 "/></g></g></g><g fill="#fffef9" fill-opacity="1"><g transform="translate(407.38479, 179.852353)"><g><path d="M 22.953125 -30.671875 C 24.316406 -30.671875 25.707031 -30.40625 27.125 -29.875 C 28.550781 -29.351562 29.878906 -28.503906 31.109375 -27.328125 C 32.335938 -26.148438 33.320312 -24.613281 34.0625 -22.71875 C 34.800781 -20.832031 35.171875 -18.523438 35.171875 -15.796875 C 35.171875 -12.765625 34.535156 -10.007812 33.265625 -7.53125 C 31.992188 -5.050781 30.164062 -3.070312 27.78125 -1.59375 C 25.394531 -0.113281 22.515625 0.625 19.140625 0.625 C 17.328125 0.625 15.660156 0.296875 14.140625 -0.359375 C 12.628906 -1.023438 11.398438 -1.679688 10.453125 -2.328125 L 10.453125 7.953125 C 10.453125 9.242188 10.546875 10.207031 10.734375 10.84375 C 10.921875 11.488281 11.421875 11.925781 12.234375 12.15625 C 13.054688 12.382812 14.414062 12.5 16.3125 12.5 C 16.414062 12.5 16.476562 12.640625 16.5 12.921875 C 16.519531 13.203125 16.519531 13.484375 16.5 13.765625 C 16.476562 14.054688 16.414062 14.203125 16.3125 14.203125 L 1.59375 14.203125 C 1.519531 14.203125 1.472656 14.054688 1.453125 13.765625 C 1.429688 13.484375 1.429688 13.203125 1.453125 12.921875 C 1.472656 12.640625 1.519531 12.5 1.59375 12.5 C 3.03125 12.5 4.050781 12.382812 4.65625 12.15625 C 5.257812 11.925781 5.632812 11.488281 5.78125 10.84375 C 5.9375 10.207031 6.015625 9.242188 6.015625 7.953125 L 6.015625 -20.90625 C 6.015625 -22.757812 5.945312 -24.117188 5.8125 -24.984375 C 5.6875 -25.859375 5.367188 -26.476562 4.859375 -26.84375 C 4.347656 -27.207031 3.523438 -27.554688 2.390625 -27.890625 C 2.304688 -27.929688 2.253906 -28.175781 2.234375 -28.625 C 2.222656 -29.082031 2.273438 -29.332031 2.390625 -29.375 C 3.640625 -29.5625 4.847656 -29.75 6.015625 -29.9375 C 7.191406 -30.125 8.367188 -30.316406 9.546875 -30.515625 C 10.148438 -30.617188 10.453125 -30.445312 10.453125 -30 C 10.410156 -29.09375 10.351562 -28.203125 10.28125 -27.328125 C 10.207031 -26.453125 10.132812 -25.582031 10.0625 -24.71875 L 10.34375 -24.71875 C 11.175781 -25.507812 12.175781 -26.367188 13.34375 -27.296875 C 14.519531 -28.222656 15.894531 -29.015625 17.46875 -29.671875 C 19.039062 -30.335938 20.867188 -30.671875 22.953125 -30.671875 Z M 21.078125 -28.296875 C 19.253906 -28.296875 17.671875 -27.960938 16.328125 -27.296875 C 14.984375 -26.628906 13.835938 -25.859375 12.890625 -24.984375 C 11.941406 -24.117188 11.128906 -23.363281 10.453125 -22.71875 L 10.453125 -6.3125 C 11.628906 -4.789062 12.914062 -3.535156 14.3125 -2.546875 C 15.71875 -1.566406 17.5 -1.078125 19.65625 -1.078125 C 21.582031 -1.078125 23.332031 -1.625 24.90625 -2.71875 C 26.476562 -3.820312 27.738281 -5.425781 28.6875 -7.53125 C 29.632812 -9.632812 30.109375 -12.195312 30.109375 -15.21875 C 30.109375 -17.644531 29.75 -19.84375 29.03125 -21.8125 C 28.3125 -23.78125 27.28125 -25.351562 25.9375 -26.53125 C 24.59375 -27.707031 22.972656 -28.296875 21.078125 -28.296875 Z M 21.078125 -28.296875 "/></g></g></g><g fill="#fffef9" fill-opacity="1"><g transform="translate(444.991545, 179.852353)"><g><path d="M 30 -10.171875 C 30.070312 -10.285156 30.25 -10.226562 30.53125 -10 C 30.820312 -9.769531 30.945312 -9.617188 30.90625 -9.546875 C 30.070312 -7.953125 29.039062 -6.378906 27.8125 -4.828125 C 26.582031 -3.273438 25.085938 -1.988281 23.328125 -0.96875 C 21.566406 0.0507812 19.472656 0.5625 17.046875 0.5625 C 14.203125 0.5625 11.679688 -0.109375 9.484375 -1.453125 C 7.285156 -2.796875 5.5625 -4.613281 4.3125 -6.90625 C 3.0625 -9.195312 2.4375 -11.78125 2.4375 -14.65625 C 2.4375 -17.757812 3.097656 -20.515625 4.421875 -22.921875 C 5.753906 -25.328125 7.582031 -27.21875 9.90625 -28.59375 C 12.238281 -29.976562 14.941406 -30.671875 18.015625 -30.671875 C 20.359375 -30.671875 22.398438 -30.140625 24.140625 -29.078125 C 25.890625 -28.023438 27.253906 -26.644531 28.234375 -24.9375 C 29.222656 -23.238281 29.71875 -21.40625 29.71875 -19.4375 C 29.71875 -18.976562 29.6875 -18.460938 29.625 -17.890625 C 29.570312 -17.328125 29.503906 -16.835938 29.421875 -16.421875 L 7.328125 -16.421875 L 7.328125 -15.34375 C 7.328125 -13.9375 7.550781 -12.484375 8 -10.984375 C 8.457031 -9.492188 9.148438 -8.113281 10.078125 -6.84375 C 11.003906 -5.570312 12.195312 -4.546875 13.65625 -3.765625 C 15.113281 -2.992188 16.847656 -2.609375 18.859375 -2.609375 C 20.898438 -2.609375 22.613281 -3.023438 24 -3.859375 C 25.382812 -4.691406 26.550781 -5.695312 27.5 -6.875 C 28.445312 -8.050781 29.28125 -9.148438 30 -10.171875 Z M 17.78125 -28.921875 C 15.132812 -28.921875 12.875 -27.988281 11 -26.125 C 9.125 -24.269531 7.957031 -21.660156 7.5 -18.296875 L 21.984375 -18.296875 C 23.046875 -18.296875 23.820312 -18.492188 24.3125 -18.890625 C 24.800781 -19.285156 25.046875 -20.015625 25.046875 -21.078125 C 25.046875 -22.472656 24.769531 -23.769531 24.21875 -24.96875 C 23.675781 -26.164062 22.863281 -27.125 21.78125 -27.84375 C 20.707031 -28.5625 19.375 -28.921875 17.78125 -28.921875 Z M 17.78125 -28.921875 "/></g></g></g><g fill="#fffef9" fill-opacity="1"><g transform="translate(477.201565, 179.852353)"><g><path d="M 30.796875 -8.0625 C 30.796875 -6.8125 30.84375 -5.816406 30.9375 -5.078125 C 31.03125 -4.347656 31.320312 -3.765625 31.8125 -3.328125 C 32.300781 -2.890625 33.15625 -2.5 34.375 -2.15625 C 34.488281 -2.125 34.546875 -1.878906 34.546875 -1.421875 C 34.546875 -0.960938 34.488281 -0.734375 34.375 -0.734375 C 33.65625 -0.617188 33.007812 -0.503906 32.4375 -0.390625 C 31.875 -0.285156 31.203125 -0.15625 30.421875 0 C 29.648438 0.15625 28.582031 0.34375 27.21875 0.5625 C 27.0625 0.601562 26.878906 0.546875 26.671875 0.390625 C 26.460938 0.242188 26.378906 0.09375 26.421875 -0.0625 L 26.765625 -5.0625 L 26.421875 -5.0625 C 24.566406 -3.582031 22.613281 -2.265625 20.5625 -1.109375 C 18.519531 0.046875 16.304688 0.625 13.921875 0.625 C 10.960938 0.625 8.753906 -0.300781 7.296875 -2.15625 C 5.835938 -4.007812 5.109375 -7.039062 5.109375 -11.25 L 5.109375 -21.921875 C 5.109375 -23.210938 5.0625 -24.226562 4.96875 -24.96875 C 4.875 -25.707031 4.570312 -26.296875 4.0625 -26.734375 C 3.550781 -27.171875 2.691406 -27.554688 1.484375 -27.890625 C 1.328125 -27.972656 1.257812 -28.226562 1.28125 -28.65625 C 1.300781 -29.09375 1.382812 -29.332031 1.53125 -29.375 C 2.75 -29.5625 4 -29.757812 5.28125 -29.96875 C 6.570312 -30.175781 7.820312 -30.410156 9.03125 -30.671875 C 9.144531 -30.671875 9.265625 -30.625 9.390625 -30.53125 C 9.523438 -30.4375 9.578125 -30.351562 9.546875 -30.28125 L 9.546875 -12.09375 C 9.546875 -8.457031 10.171875 -5.957031 11.421875 -4.59375 C 12.671875 -3.238281 14.335938 -2.5625 16.421875 -2.5625 C 18.316406 -2.5625 20.132812 -3.050781 21.875 -4.03125 C 23.613281 -5.019531 25.085938 -6.023438 26.296875 -7.046875 L 26.296875 -21.921875 C 26.296875 -23.210938 26.25 -24.226562 26.15625 -24.96875 C 26.0625 -25.707031 25.769531 -26.296875 25.28125 -26.734375 C 24.789062 -27.171875 23.9375 -27.554688 22.71875 -27.890625 C 22.570312 -27.972656 22.503906 -28.226562 22.515625 -28.65625 C 22.535156 -29.09375 22.601562 -29.332031 22.71875 -29.375 C 23.820312 -29.5625 24.910156 -29.75 25.984375 -29.9375 C 27.066406 -30.125 28.5 -30.367188 30.28125 -30.671875 C 30.351562 -30.671875 30.457031 -30.625 30.59375 -30.53125 C 30.726562 -30.4375 30.796875 -30.351562 30.796875 -30.28125 Z M 30.796875 -8.0625 "/></g></g></g><g fill="#fffef9" fill-opacity="1"><g transform="translate(514.524298, 179.852353)"><g><path d="M 6.875 0 L 2.15625 0 C 2.082031 0 2.035156 -0.140625 2.015625 -0.421875 C 1.992188 -0.710938 1.992188 -1 2.015625 -1.28125 C 2.035156 -1.5625 2.082031 -1.703125 2.15625 -1.703125 C 3.59375 -1.703125 4.625 -1.816406 5.25 -2.046875 C 5.875 -2.273438 6.253906 -2.707031 6.390625 -3.34375 C 6.523438 -3.988281 6.59375 -4.957031 6.59375 -6.25 L 6.59375 -21.921875 C 6.59375 -23.210938 6.546875 -24.226562 6.453125 -24.96875 C 6.359375 -25.707031 6.035156 -26.296875 5.484375 -26.734375 C 4.929688 -27.171875 3.992188 -27.554688 2.671875 -27.890625 C 2.554688 -27.929688 2.515625 -28.175781 2.546875 -28.625 C 2.585938 -29.082031 2.628906 -29.332031 2.671875 -29.375 C 3.316406 -29.488281 3.828125 -29.570312 4.203125 -29.625 C 4.578125 -29.6875 4.960938 -29.742188 5.359375 -29.796875 C 5.765625 -29.859375 6.316406 -29.941406 7.015625 -30.046875 C 7.710938 -30.160156 8.707031 -30.332031 10 -30.5625 C 10.257812 -30.632812 10.484375 -30.601562 10.671875 -30.46875 C 10.867188 -30.34375 10.96875 -30.1875 10.96875 -30 C 10.925781 -29.394531 10.90625 -28.9375 10.90625 -28.625 C 10.90625 -28.320312 10.882812 -28 10.84375 -27.65625 C 10.8125 -27.320312 10.773438 -26.820312 10.734375 -26.15625 C 10.703125 -25.5 10.644531 -24.488281 10.5625 -23.125 L 10.90625 -23.125 C 11.4375 -24.5625 12.304688 -25.847656 13.515625 -26.984375 C 14.734375 -28.117188 16.0625 -29.015625 17.5 -29.671875 C 18.9375 -30.335938 20.207031 -30.671875 21.3125 -30.671875 C 22.632812 -30.671875 23.65625 -30.382812 24.375 -29.8125 C 25.09375 -29.25 25.453125 -28.570312 25.453125 -27.78125 C 25.453125 -26.988281 25.070312 -26.363281 24.3125 -25.90625 C 23.550781 -25.445312 22.738281 -25.21875 21.875 -25.21875 C 21.039062 -25.21875 20.207031 -25.367188 19.375 -25.671875 C 18.539062 -25.984375 17.78125 -26.382812 17.09375 -26.875 L 16.984375 -26.875 C 16.835938 -26.875 16.394531 -26.679688 15.65625 -26.296875 C 14.914062 -25.921875 14.109375 -25.28125 13.234375 -24.375 C 12.367188 -23.46875 11.648438 -22.179688 11.078125 -20.515625 L 11.078125 -6.25 C 11.078125 -4.957031 11.171875 -3.988281 11.359375 -3.34375 C 11.546875 -2.707031 12.046875 -2.273438 12.859375 -2.046875 C 13.679688 -1.816406 15.039062 -1.703125 16.9375 -1.703125 C 17.039062 -1.703125 17.101562 -1.5625 17.125 -1.28125 C 17.144531 -1 17.144531 -0.710938 17.125 -0.421875 C 17.101562 -0.140625 17.039062 0 16.9375 0 Z M 6.875 0 "/></g></g></g><g fill="#fffef9" fill-opacity="1"><g transform="translate(540.542263, 179.852353)"><g/></g></g><g fill="#fffef9" fill-opacity="1"><g transform="translate(556.221188, 179.852353)"><g><path d="M 18.859375 0.625 C 17.160156 0.625 15.617188 0.414062 14.234375 0 C 12.847656 -0.414062 11.679688 -0.847656 10.734375 -1.296875 C 9.785156 -1.753906 9.101562 -2.0625 8.6875 -2.21875 C 8.3125 -1.832031 8.03125 -1.488281 7.84375 -1.1875 C 7.65625 -0.882812 7.253906 -0.488281 6.640625 0 C 6.535156 0.0390625 6.265625 0.078125 5.828125 0.109375 C 5.390625 0.148438 5.191406 0.09375 5.234375 -0.0625 L 5.234375 -34.375 C 5.234375 -36.039062 5.03125 -37.394531 4.625 -38.4375 C 4.226562 -39.476562 3.195312 -39.957031 1.53125 -39.875 C 1.382812 -39.875 1.3125 -40.09375 1.3125 -40.53125 C 1.3125 -40.96875 1.367188 -41.207031 1.484375 -41.25 C 2.691406 -41.476562 3.910156 -41.695312 5.140625 -41.90625 C 6.367188 -42.113281 7.59375 -42.328125 8.8125 -42.546875 C 9.375 -42.660156 9.65625 -42.53125 9.65625 -42.15625 L 9.65625 -29.421875 L 9.265625 -24.59375 L 9.59375 -24.59375 C 10.351562 -25.3125 11.320312 -26.144531 12.5 -27.09375 C 13.675781 -28.039062 15.066406 -28.875 16.671875 -29.59375 C 18.285156 -30.3125 20.078125 -30.671875 22.046875 -30.671875 C 24.160156 -30.671875 26.15625 -30.140625 28.03125 -29.078125 C 29.90625 -28.023438 31.429688 -26.398438 32.609375 -24.203125 C 33.785156 -22.003906 34.375 -19.203125 34.375 -15.796875 C 34.375 -12.421875 33.648438 -9.503906 32.203125 -7.046875 C 30.765625 -4.585938 28.875 -2.691406 26.53125 -1.359375 C 24.1875 -0.0351562 21.628906 0.625 18.859375 0.625 Z M 19.03125 -1.078125 C 20.582031 -1.078125 22.144531 -1.5625 23.71875 -2.53125 C 25.289062 -3.5 26.613281 -5.003906 27.6875 -7.046875 C 28.769531 -9.085938 29.3125 -11.71875 29.3125 -14.9375 C 29.3125 -19.101562 28.457031 -22.367188 26.75 -24.734375 C 25.050781 -27.109375 22.800781 -28.296875 20 -28.296875 C 17.957031 -28.296875 16.0625 -27.695312 14.3125 -26.5 C 12.570312 -25.3125 11.019531 -23.957031 9.65625 -22.4375 L 9.65625 -5 C 10.71875 -4.09375 12.09375 -3.210938 13.78125 -2.359375 C 15.46875 -1.503906 17.21875 -1.078125 19.03125 -1.078125 Z M 19.03125 -1.078125 "/></g></g></g><g fill="#fffef9" fill-opacity="1"><g transform="translate(592.975834, 179.852353)"><g><path d="M 11.078125 0.5625 C 8.691406 0.5625 6.757812 -0.0859375 5.28125 -1.390625 C 3.800781 -2.703125 3.0625 -4.453125 3.0625 -6.640625 C 3.0625 -8.421875 3.710938 -10.039062 5.015625 -11.5 C 6.328125 -12.957031 8.457031 -14.265625 11.40625 -15.421875 C 14.363281 -16.578125 18.34375 -17.570312 23.34375 -18.40625 L 23.34375 -21.3125 C 23.34375 -24.113281 22.679688 -26.082031 21.359375 -27.21875 C 20.035156 -28.351562 18.445312 -28.921875 16.59375 -28.921875 C 15.601562 -28.921875 14.40625 -28.625 13 -28.03125 C 11.601562 -27.445312 10.429688 -26.71875 9.484375 -25.84375 C 10.015625 -23.988281 9.976562 -22.53125 9.375 -21.46875 C 8.769531 -20.414062 7.957031 -19.890625 6.9375 -19.890625 C 6.289062 -19.890625 5.71875 -20.132812 5.21875 -20.625 C 4.726562 -21.113281 4.484375 -21.738281 4.484375 -22.5 C 4.484375 -23.363281 4.878906 -24.28125 5.671875 -25.25 C 6.472656 -26.21875 7.515625 -27.109375 8.796875 -27.921875 C 10.085938 -28.734375 11.488281 -29.394531 13 -29.90625 C 14.519531 -30.414062 15.984375 -30.671875 17.390625 -30.671875 C 19.171875 -30.671875 20.84375 -30.425781 22.40625 -29.9375 C 23.976562 -29.445312 25.265625 -28.488281 26.265625 -27.0625 C 27.273438 -25.644531 27.78125 -23.554688 27.78125 -20.796875 L 27.78125 -3.921875 C 27.78125 -3.128906 27.921875 -2.472656 28.203125 -1.953125 C 28.492188 -1.441406 28.957031 -1.1875 29.59375 -1.1875 C 30.09375 -1.1875 30.566406 -1.414062 31.015625 -1.875 C 31.472656 -2.332031 31.945312 -2.878906 32.4375 -3.515625 C 32.507812 -3.671875 32.671875 -3.65625 32.921875 -3.46875 C 33.171875 -3.28125 33.253906 -3.128906 33.171875 -3.015625 C 32.453125 -1.992188 31.65625 -1.128906 30.78125 -0.421875 C 29.914062 0.273438 28.878906 0.625 27.671875 0.625 C 26.421875 0.625 25.488281 0.34375 24.875 -0.21875 C 24.269531 -0.789062 23.875 -1.457031 23.6875 -2.21875 C 23.5 -2.976562 23.40625 -3.617188 23.40625 -4.140625 L 23.40625 -8.296875 L 23.296875 -8.296875 C 22.910156 -7.460938 22.335938 -6.535156 21.578125 -5.515625 C 20.828125 -4.492188 19.929688 -3.515625 18.890625 -2.578125 C 17.847656 -1.648438 16.671875 -0.894531 15.359375 -0.3125 C 14.054688 0.269531 12.628906 0.5625 11.078125 0.5625 Z M 13.234375 -2.4375 C 14.785156 -2.4375 16.207031 -2.84375 17.5 -3.65625 C 18.789062 -4.476562 19.9375 -5.53125 20.9375 -6.8125 C 21.9375 -8.101562 22.738281 -9.445312 23.34375 -10.84375 L 23.34375 -16.53125 C 20.007812 -16.039062 17.300781 -15.453125 15.21875 -14.765625 C 13.132812 -14.085938 11.523438 -13.367188 10.390625 -12.609375 C 9.253906 -11.847656 8.46875 -11.078125 8.03125 -10.296875 C 7.601562 -9.523438 7.390625 -8.78125 7.390625 -8.0625 C 7.390625 -6.363281 7.972656 -5 9.140625 -3.96875 C 10.316406 -2.945312 11.679688 -2.4375 13.234375 -2.4375 Z M 13.234375 -2.4375 "/></g></g></g><g fill="#fffef9" fill-opacity="1"><g transform="translate(627.287731, 179.852353)"><g><path d="M 16.8125 0.5625 C 14.195312 0.5625 11.800781 -0.0859375 9.625 -1.390625 C 7.445312 -2.703125 5.703125 -4.492188 4.390625 -6.765625 C 3.085938 -9.035156 2.4375 -11.644531 2.4375 -14.59375 C 2.4375 -17.78125 3.117188 -20.582031 4.484375 -23 C 5.847656 -25.425781 7.734375 -27.3125 10.140625 -28.65625 C 12.546875 -30 15.300781 -30.671875 18.40625 -30.671875 C 20.257812 -30.671875 21.988281 -30.320312 23.59375 -29.625 C 25.207031 -28.925781 26.503906 -28.035156 27.484375 -26.953125 C 28.472656 -25.878906 28.96875 -24.773438 28.96875 -23.640625 C 28.96875 -22.910156 28.726562 -22.359375 28.25 -21.984375 C 27.78125 -21.609375 27.226562 -21.421875 26.59375 -21.421875 C 25.53125 -21.421875 24.640625 -21.941406 23.921875 -22.984375 C 23.203125 -24.023438 22.785156 -25.660156 22.671875 -27.890625 C 22.285156 -28.078125 21.757812 -28.296875 21.09375 -28.546875 C 20.4375 -28.796875 19.46875 -28.921875 18.1875 -28.921875 C 16.25 -28.921875 14.457031 -28.4375 12.8125 -27.46875 C 11.164062 -26.5 9.835938 -25.03125 8.828125 -23.0625 C 7.828125 -21.09375 7.328125 -18.554688 7.328125 -15.453125 C 7.328125 -13.328125 7.769531 -11.28125 8.65625 -9.3125 C 9.550781 -7.34375 10.859375 -5.734375 12.578125 -4.484375 C 14.304688 -3.234375 16.421875 -2.609375 18.921875 -2.609375 C 20.660156 -2.609375 22.191406 -2.957031 23.515625 -3.65625 C 24.847656 -4.363281 26.035156 -5.273438 27.078125 -6.390625 C 28.117188 -7.503906 29.054688 -8.707031 29.890625 -10 C 29.960938 -10.144531 30.148438 -10.113281 30.453125 -9.90625 C 30.753906 -9.695312 30.882812 -9.554688 30.84375 -9.484375 C 29.257812 -6.492188 27.375 -4.070312 25.1875 -2.21875 C 23.007812 -0.363281 20.21875 0.5625 16.8125 0.5625 Z M 16.8125 0.5625 "/></g></g></g><g fill="#fffef9" fill-opacity="1"><g transform="translate(659.156878, 179.852353)"><g><path d="M 37.5 -1.640625 C 37.570312 -1.640625 37.617188 -1.5 37.640625 -1.21875 C 37.660156 -0.9375 37.660156 -0.660156 37.640625 -0.390625 C 37.617188 -0.128906 37.570312 0 37.5 0 L 29.375 0 C 28.882812 -0.414062 28.316406 -1.238281 27.671875 -2.46875 C 27.023438 -3.695312 26.347656 -5.132812 25.640625 -6.78125 C 24.941406 -8.4375 24.195312 -10.078125 23.40625 -11.703125 C 22.832031 -12.910156 22.035156 -13.96875 21.015625 -14.875 C 19.992188 -15.789062 18.785156 -16.25 17.390625 -16.25 C 16.554688 -16.25 15.644531 -16.007812 14.65625 -15.53125 C 13.675781 -15.0625 12.804688 -14.503906 12.046875 -13.859375 L 10.96875 -12.953125 L 10.96875 -6.25 C 10.96875 -4.957031 11.039062 -3.988281 11.1875 -3.34375 C 11.34375 -2.707031 11.722656 -2.273438 12.328125 -2.046875 C 12.929688 -1.816406 13.914062 -1.703125 15.28125 -1.703125 C 15.351562 -1.703125 15.398438 -1.5625 15.421875 -1.28125 C 15.441406 -1 15.441406 -0.710938 15.421875 -0.421875 C 15.398438 -0.140625 15.351562 0 15.28125 0 L 2.109375 0 C 2.023438 0 1.972656 -0.140625 1.953125 -0.421875 C 1.941406 -0.710938 1.941406 -1 1.953125 -1.28125 C 1.972656 -1.5625 2.023438 -1.703125 2.109375 -1.703125 C 3.546875 -1.703125 4.566406 -1.816406 5.171875 -2.046875 C 5.773438 -2.273438 6.148438 -2.707031 6.296875 -3.34375 C 6.453125 -3.988281 6.53125 -4.957031 6.53125 -6.25 L 6.53125 -34.65625 C 6.53125 -35.789062 6.460938 -36.773438 6.328125 -37.609375 C 6.203125 -38.441406 5.875 -39.082031 5.34375 -39.53125 C 4.8125 -39.988281 3.976562 -40.179688 2.84375 -40.109375 C 2.726562 -40.109375 2.660156 -40.332031 2.640625 -40.78125 C 2.617188 -41.238281 2.664062 -41.488281 2.78125 -41.53125 C 4 -41.757812 5.222656 -41.96875 6.453125 -42.15625 C 7.679688 -42.34375 8.921875 -42.550781 10.171875 -42.78125 C 10.703125 -42.96875 10.96875 -42.851562 10.96875 -42.4375 L 10.96875 -15.453125 L 19.890625 -23.296875 C 21.929688 -25.078125 22.875 -26.351562 22.71875 -27.125 C 22.570312 -27.90625 21.210938 -28.3125 18.640625 -28.34375 C 18.554688 -28.34375 18.503906 -28.484375 18.484375 -28.765625 C 18.472656 -29.054688 18.472656 -29.332031 18.484375 -29.59375 C 18.503906 -29.863281 18.554688 -30 18.640625 -30 L 35.390625 -30 C 35.472656 -30 35.519531 -29.863281 35.53125 -29.59375 C 35.550781 -29.332031 35.550781 -29.054688 35.53125 -28.765625 C 35.519531 -28.484375 35.472656 -28.34375 35.390625 -28.34375 C 33.347656 -28.3125 31.242188 -27.914062 29.078125 -27.15625 C 26.921875 -26.394531 24.820312 -25.125 22.78125 -23.34375 L 16.984375 -18.234375 C 17.671875 -18.460938 18.296875 -18.578125 18.859375 -18.578125 C 19.734375 -18.578125 20.679688 -18.40625 21.703125 -18.0625 C 22.722656 -17.726562 23.734375 -17.125 24.734375 -16.25 C 25.742188 -15.375 26.628906 -14.125 27.390625 -12.5 L 29.375 -8.34375 C 30.28125 -6.457031 31.117188 -5.039062 31.890625 -4.09375 C 32.671875 -3.144531 33.492188 -2.507812 34.359375 -2.1875 C 35.234375 -1.863281 36.28125 -1.679688 37.5 -1.640625 Z M 37.5 -1.640625 "/></g></g></g><g fill="#fffef9" fill-opacity="1"><g transform="translate(697.047655, 179.852353)"><g><path d="M 1.53125 -14.765625 L 1.53125 -16.46875 L 22.328125 -16.46875 L 22.328125 -14.765625 Z M 1.53125 -14.765625 "/></g></g></g><g fill="#fffef9" fill-opacity="1"><g transform="translate(720.963723, 179.852353)"><g><path d="M 30 -10.171875 C 30.070312 -10.285156 30.25 -10.226562 30.53125 -10 C 30.820312 -9.769531 30.945312 -9.617188 30.90625 -9.546875 C 30.070312 -7.953125 29.039062 -6.378906 27.8125 -4.828125 C 26.582031 -3.273438 25.085938 -1.988281 23.328125 -0.96875 C 21.566406 0.0507812 19.472656 0.5625 17.046875 0.5625 C 14.203125 0.5625 11.679688 -0.109375 9.484375 -1.453125 C 7.285156 -2.796875 5.5625 -4.613281 4.3125 -6.90625 C 3.0625 -9.195312 2.4375 -11.78125 2.4375 -14.65625 C 2.4375 -17.757812 3.097656 -20.515625 4.421875 -22.921875 C 5.753906 -25.328125 7.582031 -27.21875 9.90625 -28.59375 C 12.238281 -29.976562 14.941406 -30.671875 18.015625 -30.671875 C 20.359375 -30.671875 22.398438 -30.140625 24.140625 -29.078125 C 25.890625 -28.023438 27.253906 -26.644531 28.234375 -24.9375 C 29.222656 -23.238281 29.71875 -21.40625 29.71875 -19.4375 C 29.71875 -18.976562 29.6875 -18.460938 29.625 -17.890625 C 29.570312 -17.328125 29.503906 -16.835938 29.421875 -16.421875 L 7.328125 -16.421875 L 7.328125 -15.34375 C 7.328125 -13.9375 7.550781 -12.484375 8 -10.984375 C 8.457031 -9.492188 9.148438 -8.113281 10.078125 -6.84375 C 11.003906 -5.570312 12.195312 -4.546875 13.65625 -3.765625 C 15.113281 -2.992188 16.847656 -2.609375 18.859375 -2.609375 C 20.898438 -2.609375 22.613281 -3.023438 24 -3.859375 C 25.382812 -4.691406 26.550781 -5.695312 27.5 -6.875 C 28.445312 -8.050781 29.28125 -9.148438 30 -10.171875 Z M 17.78125 -28.921875 C 15.132812 -28.921875 12.875 -27.988281 11 -26.125 C 9.125 -24.269531 7.957031 -21.660156 7.5 -18.296875 L 21.984375 -18.296875 C 23.046875 -18.296875 23.820312 -18.492188 24.3125 -18.890625 C 24.800781 -19.285156 25.046875 -20.015625 25.046875 -21.078125 C 25.046875 -22.472656 24.769531 -23.769531 24.21875 -24.96875 C 23.675781 -26.164062 22.863281 -27.125 21.78125 -27.84375 C 20.707031 -28.5625 19.375 -28.921875 17.78125 -28.921875 Z M 17.78125 -28.921875 "/></g></g></g><g fill="#fffef9" fill-opacity="1"><g transform="translate(753.173722, 179.852353)"><g><path d="M 6.875 0 L 2.15625 0 C 2.082031 0 2.035156 -0.140625 2.015625 -0.421875 C 1.992188 -0.710938 1.992188 -1 2.015625 -1.28125 C 2.035156 -1.5625 2.082031 -1.703125 2.15625 -1.703125 C 3.59375 -1.703125 4.625 -1.816406 5.25 -2.046875 C 5.875 -2.273438 6.253906 -2.707031 6.390625 -3.34375 C 6.523438 -3.988281 6.59375 -4.957031 6.59375 -6.25 L 6.59375 -21.921875 C 6.59375 -23.210938 6.546875 -24.226562 6.453125 -24.96875 C 6.359375 -25.707031 6.0625 -26.296875 5.5625 -26.734375 C 5.070312 -27.171875 4.222656 -27.554688 3.015625 -27.890625 C 2.898438 -27.929688 2.84375 -28.175781 2.84375 -28.625 C 2.84375 -29.082031 2.898438 -29.332031 3.015625 -29.375 C 3.617188 -29.488281 4.117188 -29.570312 4.515625 -29.625 C 4.910156 -29.6875 5.304688 -29.742188 5.703125 -29.796875 C 6.109375 -29.859375 6.648438 -29.941406 7.328125 -30.046875 C 8.003906 -30.160156 8.929688 -30.332031 10.109375 -30.5625 C 10.335938 -30.632812 10.535156 -30.601562 10.703125 -30.46875 C 10.878906 -30.34375 10.96875 -30.1875 10.96875 -30 L 10.625 -25 L 10.96875 -25 C 12.863281 -26.4375 14.8125 -27.738281 16.8125 -28.90625 C 18.820312 -30.082031 21.039062 -30.671875 23.46875 -30.671875 C 26.414062 -30.671875 28.617188 -29.734375 30.078125 -27.859375 C 31.535156 -25.984375 32.265625 -22.945312 32.265625 -18.75 L 32.265625 -6.25 C 32.265625 -4.957031 32.335938 -3.988281 32.484375 -3.34375 C 32.640625 -2.707031 33.03125 -2.273438 33.65625 -2.046875 C 34.28125 -1.816406 35.296875 -1.703125 36.703125 -1.703125 C 36.773438 -1.703125 36.820312 -1.5625 36.84375 -1.28125 C 36.863281 -1 36.863281 -0.710938 36.84375 -0.421875 C 36.820312 -0.140625 36.773438 0 36.703125 0 L 23.578125 0 C 23.503906 0 23.457031 -0.140625 23.4375 -0.421875 C 23.414062 -0.710938 23.414062 -1 23.4375 -1.28125 C 23.457031 -1.5625 23.503906 -1.703125 23.578125 -1.703125 C 24.941406 -1.703125 25.925781 -1.816406 26.53125 -2.046875 C 27.132812 -2.273438 27.503906 -2.707031 27.640625 -3.34375 C 27.773438 -3.988281 27.84375 -4.957031 27.84375 -6.25 L 27.84375 -17.890625 C 27.84375 -21.523438 27.222656 -24.023438 25.984375 -25.390625 C 24.753906 -26.753906 23.082031 -27.4375 20.96875 -27.4375 C 19.113281 -27.4375 17.320312 -26.960938 15.59375 -26.015625 C 13.875 -25.066406 12.367188 -24.046875 11.078125 -22.953125 L 11.078125 -6.25 C 11.078125 -4.957031 11.140625 -3.988281 11.265625 -3.34375 C 11.398438 -2.707031 11.757812 -2.273438 12.34375 -2.046875 C 12.9375 -1.816406 13.914062 -1.703125 15.28125 -1.703125 C 15.351562 -1.703125 15.398438 -1.5625 15.421875 -1.28125 C 15.441406 -1 15.441406 -0.710938 15.421875 -0.421875 C 15.398438 -0.140625 15.351562 0 15.28125 0 Z M 6.875 0 "/></g></g></g><g fill="#fffef9" fill-opacity="1"><g transform="translate(791.803032, 179.852353)"><g><path d="M 14.65625 0.625 C 13.289062 0.625 11.894531 0.359375 10.46875 -0.171875 C 9.050781 -0.703125 7.726562 -1.550781 6.5 -2.71875 C 5.269531 -3.894531 4.285156 -5.429688 3.546875 -7.328125 C 2.804688 -9.222656 2.4375 -11.535156 2.4375 -14.265625 C 2.4375 -17.296875 3.070312 -20.050781 4.34375 -22.53125 C 5.613281 -25.007812 7.453125 -26.984375 9.859375 -28.453125 C 12.265625 -29.929688 15.132812 -30.671875 18.46875 -30.671875 C 20.28125 -30.671875 21.953125 -30.332031 23.484375 -29.65625 C 25.023438 -28.976562 26.25 -28.316406 27.15625 -27.671875 L 27.15625 -34.59375 C 27.15625 -36.300781 26.957031 -37.664062 26.5625 -38.6875 C 26.164062 -39.707031 25.132812 -40.179688 23.46875 -40.109375 C 23.3125 -40.109375 23.234375 -40.332031 23.234375 -40.78125 C 23.234375 -41.238281 23.269531 -41.488281 23.34375 -41.53125 C 24.5625 -41.71875 25.796875 -41.914062 27.046875 -42.125 C 28.296875 -42.332031 29.523438 -42.550781 30.734375 -42.78125 C 31.304688 -42.894531 31.59375 -42.78125 31.59375 -42.4375 L 31.59375 -9.140625 C 31.59375 -7.285156 31.664062 -5.921875 31.8125 -5.046875 C 31.96875 -4.179688 32.3125 -3.554688 32.84375 -3.171875 C 33.375 -2.796875 34.207031 -2.421875 35.34375 -2.046875 C 35.457031 -2.003906 35.503906 -1.773438 35.484375 -1.359375 C 35.460938 -0.941406 35.414062 -0.71875 35.34375 -0.6875 C 34.164062 -0.53125 33 -0.335938 31.84375 -0.109375 C 30.6875 0.117188 29.519531 0.328125 28.34375 0.515625 C 28.195312 0.515625 28 0.445312 27.75 0.3125 C 27.507812 0.175781 27.390625 0.0507812 27.390625 -0.0625 C 27.390625 -0.925781 27.40625 -1.796875 27.4375 -2.671875 C 27.476562 -3.546875 27.515625 -4.414062 27.546875 -5.28125 L 27.21875 -5.28125 C 26.414062 -4.519531 25.425781 -3.675781 24.25 -2.75 C 23.082031 -1.820312 21.710938 -1.023438 20.140625 -0.359375 C 18.566406 0.296875 16.738281 0.625 14.65625 0.625 Z M 16.53125 -1.765625 C 18.351562 -1.765625 19.9375 -2.082031 21.28125 -2.71875 C 22.625 -3.363281 23.773438 -4.128906 24.734375 -5.015625 C 25.703125 -5.910156 26.507812 -6.679688 27.15625 -7.328125 L 27.15625 -23.6875 C 25.976562 -25.238281 24.6875 -26.5 23.28125 -27.46875 C 21.882812 -28.4375 20.109375 -28.921875 17.953125 -28.921875 C 16.023438 -28.921875 14.273438 -28.378906 12.703125 -27.296875 C 11.128906 -26.210938 9.867188 -24.617188 8.921875 -22.515625 C 7.972656 -20.421875 7.5 -17.835938 7.5 -14.765625 C 7.5 -12.378906 7.847656 -10.203125 8.546875 -8.234375 C 9.242188 -6.265625 10.265625 -4.691406 11.609375 -3.515625 C 12.960938 -2.347656 14.601562 -1.765625 16.53125 -1.765625 Z M 16.53125 -1.765625 "/></g></g></g><g fill="#fffef9" fill-opacity="1"><g transform="translate(830.09149, 179.852353)"><g><path d="M 8.0625 0.625 C 7.113281 0.625 6.304688 0.3125 5.640625 -0.3125 C 4.984375 -0.9375 4.65625 -1.6875 4.65625 -2.5625 C 4.65625 -3.46875 4.96875 -4.234375 5.59375 -4.859375 C 6.21875 -5.484375 7.039062 -5.796875 8.0625 -5.796875 C 9.007812 -5.796875 9.804688 -5.484375 10.453125 -4.859375 C 11.097656 -4.234375 11.421875 -3.46875 11.421875 -2.5625 C 11.421875 -1.726562 11.109375 -0.988281 10.484375 -0.34375 C 9.859375 0.300781 9.050781 0.625 8.0625 0.625 Z M 8.0625 0.625 "/></g></g></g><g fill="#fffef9" fill-opacity="1"><g transform="translate(104.33733, 224.788646)"><g><path d="M 20.671875 -204.890625 L 63.703125 -204.890625 L 63.703125 -201.171875 L 24.40625 -201.171875 L 24.40625 14.90625 L 63.703125 14.90625 L 63.703125 18.625 L 20.671875 18.625 Z M 20.671875 -204.890625 "/></g></g></g><g fill="#fffef9" fill-opacity="1"><g transform="translate(867.862657, 224.788646)"><g><path d="M -11.921875 14.90625 L 27.375 14.90625 L 27.375 -201.171875 L -11.921875 -201.171875 L -11.921875 -204.890625 L 31.109375 -204.890625 L 31.109375 18.625 L -11.921875 18.625 Z M -11.921875 14.90625 "/></g></g></g></svg>